<svg id="Capa_1" enable-background="new 0 0 512 512" height="512" viewBox="0 0 512 512" width="512" xmlns="http://www.w3.org/2000/svg" xmlns:xlink="http://www.w3.org/1999/xlink"><linearGradient id="SVGID_1_" gradientTransform="matrix(1 0 0 -1 -561.6 -8714.99)" gradientUnits="userSpaceOnUse" x1="1068.089" x2="528.035" y1="-8826.263" y2="-9138.295"><stop offset="0" stop-color="#fff3ee" stop-opacity="0"/><stop offset=".2938" stop-color="#ffeade" stop-opacity=".373"/><stop offset=".7874" stop-color="#ffd6bb"/></linearGradient><linearGradient id="SVGID_2_" gradientUnits="userSpaceOnUse" x1="256.001" x2="256.001" y1="457.853" y2="263.095"><stop offset="0" stop-color="#ff4d4d" stop-opacity=".4"/><stop offset="1" stop-color="#ff4d4d" stop-opacity="0"/></linearGradient><g><g><path d="m361.232 275.692c-56.758 0-102.769-46.011-102.769-102.769v-65.231c-.001-59.477-48.216-107.692-107.693-107.692s-107.693 48.215-107.693 107.692v86.154c0 175.712 142.443 318.154 318.153 318.154 59.477 0 107.692-48.215 107.692-107.692v-20.923c.001-59.477-48.214-107.693-107.69-107.693z" fill="url(#SVGID_1_)"/><g><path d="m122.122 228.19h-3v-3c0-2.762-2.238-5-5-5s-5 2.238-5 5v3h-3c-2.762 0-5 2.238-5 5s2.238 5 5 5h3v3c0 2.762 2.238 5 5 5s5-2.238 5-5v-3h3c2.762 0 5-2.238 5-5s-2.238-5-5-5z" fill="#8383ff"/><path d="m156.751 253h-3v-3c0-2.762-2.238-5-5-5s-5 2.238-5 5v3h-3c-2.762 0-5 2.238-5 5s2.238 5 5 5h3v3c0 2.762 2.238 5 5 5s5-2.238 5-5v-3h3c2.762 0 5-2.238 5-5s-2.239-5-5-5z" fill="#ff9d33"/><path d="m379.25 254c-1.279 0-2.56-.488-3.535-1.465l-4.465-4.464-4.465 4.464c-1.951 1.953-5.119 1.953-7.07 0-1.953-1.952-1.953-5.118 0-7.07l8-8c1.951-1.953 5.119-1.953 7.07 0l8 8c1.953 1.952 1.953 5.118 0 7.07-.975.977-2.255 1.465-3.535 1.465z" fill="#8383ff"/><path d="m379.25 454.163c-1.279 0-2.56-.488-3.535-1.465l-4.465-4.464-4.465 4.464c-1.951 1.953-5.119 1.953-7.07 0-1.953-1.952-1.953-5.118 0-7.07l8-8c1.951-1.953 5.119-1.953 7.07 0l8 8c1.953 1.952 1.953 5.118 0 7.07-.975.977-2.255 1.465-3.535 1.465z" fill="#ff6c6c"/><path d="m122.122 345.685c-1.279 0-2.56-.488-3.535-1.465l-4.465-4.464-4.465 4.464c-1.951 1.953-5.119 1.953-7.07 0-1.953-1.952-1.953-5.118 0-7.07l8-8c1.951-1.953 5.119-1.953 7.07 0l8 8c1.953 1.952 1.953 5.118 0 7.07-.974.976-2.256 1.465-3.535 1.465z" fill="#ff6c6c"/><g><path d="m336.957 91.356h-161.913l-26.293-49.233h214.5z" fill="#ff4d4d"/><g fill="#ff6c6c"><path d="m363.25 42.123c11.177 12.246 22.261 24.579 33.347 36.912 1.536 1.709 1.71 4.244.422 6.147l-108.233 159.818h-59.996z"/><path d="m148.751 42.123c-11.177 12.246-22.261 24.579-33.347 36.912-1.536 1.709-1.71 4.244-.422 6.147l108.232 159.818h59.997z"/></g></g><path d="m308.197 299.667h-104.392v-56.477c0-5.523 4.477-10 10-10h84.392c5.523 0 10 4.477 10 10z" fill="#ffc599"/><g><circle cx="256" cy="360.474" fill="#ff9d33" r="97.379"/><circle cx="256" cy="360.474" fill="#ffc599" r="76.689"/><circle cx="256" cy="360.474" fill="#ff7300" r="65.971"/><g fill="#fff"><path d="m256 411.866c-28.338 0-51.393-23.054-51.393-51.392s23.055-51.393 51.393-51.393 51.393 23.055 51.393 51.393-23.054 51.392-51.393 51.392zm0-92.784c-22.824 0-41.393 18.568-41.393 41.393 0 22.823 18.568 41.392 41.393 41.392s41.393-18.568 41.393-41.392c0-22.825-18.569-41.393-41.393-41.393z"/><path d="m256 411.866c-16.433 0-25.3-26.479-25.3-51.392 0-24.914 8.867-51.393 25.3-51.393s25.3 26.479 25.3 51.393-8.866 51.392-25.3 51.392zm0-92.784c-6.238 0-15.3 16.125-15.3 41.393 0 11.717 1.963 22.655 5.526 30.8 2.858 6.533 6.604 10.592 9.773 10.592 6.238 0 15.3-16.124 15.3-41.392 0-11.718-1.963-22.656-5.526-30.8-2.858-6.534-6.602-10.593-9.773-10.593z"/><g><path d="m256 350.843c-16.36 0-31.757-3.646-41.187-9.754-2.318-1.501-2.98-4.597-1.479-6.914s4.598-2.981 6.914-1.479c7.877 5.101 21.241 8.146 35.751 8.146 14.5 0 28.301-3.188 36.017-8.321 2.301-1.529 5.404-.904 6.933 1.394 1.529 2.3.905 5.403-1.394 6.933-9.408 6.258-24.943 9.995-41.555 9.995z"/><path d="m217.105 389.343c-1.61 0-3.19-.776-4.155-2.213-1.54-2.292-.93-5.398 1.362-6.938 9.4-6.314 24.985-10.085 41.689-10.085 16.361 0 31.759 3.646 41.188 9.754 2.317 1.501 2.979 4.597 1.478 6.915-1.502 2.317-4.597 2.978-6.915 1.478-7.875-5.101-21.239-8.146-35.75-8.146-14.575 0-28.413 3.213-36.113 8.386-.858.573-1.827.849-2.784.849z"/></g></g><circle cx="256" cy="360.474" fill="url(#SVGID_2_)" r="97.379"/></g></g></g></g></svg>