<svg id="Capa_1" enable-background="new 0 0 512 512" height="512" viewBox="0 0 512 512" width="512" xmlns="http://www.w3.org/2000/svg" xmlns:xlink="http://www.w3.org/1999/xlink"><linearGradient id="SVGID_1_" gradientUnits="userSpaceOnUse" x1="5.399" x2="506.601" y1="256" y2="256"><stop offset=".00072338" stop-color="#ffd6bb"/><stop offset=".9993" stop-color="#ffd9d9" stop-opacity="0"/></linearGradient><linearGradient id="SVGID_2_" gradientUnits="userSpaceOnUse" x1="236.16" x2="236.16" y1="473.303" y2="204.82"><stop offset="0" stop-color="#ff4d4d" stop-opacity=".4"/><stop offset="1" stop-color="#ff4d4d" stop-opacity="0"/></linearGradient><g><g><path d="m461.173 27.352c-63.757-37.987-146.258-35.878-208.873 3.041-35.18 21.866-62.374 53.403-93.212 80.552-27.022 23.789-58.445 40.758-86.353 63.204-101.21 81.403-91.553 300.961 50.962 330.125 61.777 12.642 146.21 16.696 182.519-43.642 34.62-57.531 46.232-116.383 113.876-146.942 23.573-10.65 62.975-10.113 78.944-33.45 20.152-29.451-4.853-60.043-18.192-85.707-17.19-33.074-20.795-65.682-8.699-101.16 10.298-30.211 17.549-43.782-10.972-66.021z" fill="url(#SVGID_1_)"/></g><g><g><g><path d="m382.033 284.179v-240.482c0-2.76-2.23-5-5-5h-187.53l-59.54 59.52v185.962z" fill="#fff"/><path d="m129.967 98.221 54.525.005c2.761 0 5-2.238 5-5l.005-54.525z" fill="#ffab66"/></g><g><g><path d="m269.258 212.312-110.753 110.754c-8.399 8.399-8.601 22.348-.045 30.585 8.294 7.985 21.492 7.89 29.669-.287-8.274 8.273-8.274 21.688 0 29.961 8.273 8.273 21.688 8.273 29.961 0-8.273 8.273-8.273 21.687 0 29.961 8.274 8.274 21.688 8.274 29.961 0-8.274 8.274-8.274 21.688 0 29.961 8.273 8.273 21.687 8.273 29.961 0l91.165-91.165h54.236v-147.266h-136.058c-6.787 0-13.297 2.697-18.097 7.496z" fill="#ffab66"/><g><path d="m377.39 377.5c-8.29 7.99-21.49 7.89-29.67-.28 8.28 8.27 8.28 21.68 0 29.96-8.27 8.27-21.68 8.27-29.96 0 4.14 4.14 6.21 9.56 6.21 14.98s-2.07 10.84-6.21 14.98c-8.27 8.27-21.69 8.27-29.96 0 8.27 8.27 8.27 21.68 0 29.96-8.27 8.27-21.69 8.27-29.96 0l-115.02-115.02h-54.23v-147.26h136.05c6.79 0 13.3 2.69 18.1 7.49l134.61 134.61c8.4 8.4 8.6 22.34.04 30.58z" fill="#ffd6bb"/><g fill="#ffc599"><path d="m191.84 214.04c0 28.51-23.12 51.63-51.63 51.63s-51.62-23.12-51.62-51.63c0-3.15.28-6.23.83-9.22h101.59c.55 2.99.83 6.07.83 9.22z"/><path d="m308.59 278.16h-10.64c-6.5 0-12.73 2.58-17.33 7.17-4.35 4.36-23.44 23.45-28.97 28.97-4.17 4.17-9.63 6.26-15.09 6.26-5.47 0-10.93-2.09-15.1-6.26-8.33-8.34-8.33-21.85 0-30.19l46.54-46.54z"/><path d="m321.297 403.641s-.004-.003-.005-.004l-63.58-63.581c-1.952-1.952-5.117-1.953-7.071 0-1.953 1.952-1.953 5.118 0 7.07l63.586 63.586c.001.001.003.003.003.003s3.261 3.805 7.067 0c3.805-3.806 0-7.074 0-7.074z"/><path d="m351.259 373.68-.011-.009-63.575-63.576c-1.951-1.953-5.119-1.953-7.07 0-1.953 1.952-1.953 5.118 0 7.07l63.584 63.585s3.706 3.366 7.072 0 0-7.07 0-7.07z"/></g><path d="m377.39 377.5c-8.29 7.99-21.49 7.89-29.67-.28 8.28 8.27 8.28 21.68 0 29.96-8.27 8.27-21.68 8.27-29.96 0 4.14 4.14 6.21 9.56 6.21 14.98s-2.07 10.84-6.21 14.98c-8.27 8.27-21.69 8.27-29.96 0 8.27 8.27 8.27 21.68 0 29.96-8.27 8.27-21.69 8.27-29.96 0l-115.02-115.02h-54.23v-147.26h136.05c6.79 0 13.3 2.69 18.1 7.49l134.61 134.61c8.4 8.4 8.6 22.34.04 30.58z" fill="url(#SVGID_2_)"/></g><g fill="#ffab66"><path d="m261.876 459.382 19.945-19.945c8.273-8.273 8.273-21.688 0-29.961-8.273-8.273-21.687-8.273-29.961 0l-19.945 19.945c-8.273 8.274-8.273 21.687 0 29.961 8.273 8.274 21.687 8.274 29.961 0z"/><path d="m231.915 429.421 19.945-19.945c8.273-8.273 8.273-21.687 0-29.961-8.274-8.273-21.688-8.273-29.961 0l-19.945 19.945c-8.273 8.273-8.273 21.687 0 29.961 8.273 8.274 21.687 8.274 29.961 0z"/><path d="m201.954 399.461 19.945-19.945c8.273-8.273 8.273-21.687 0-29.961-8.274-8.273-21.687-8.273-29.961 0l-19.945 19.945c-8.273 8.273-8.273 21.687 0 29.961 8.273 8.273 21.687 8.273 29.961 0z"/><path d="m171.993 369.5 19.945-19.945c8.273-8.273 8.273-21.687 0-29.961-8.273-8.273-21.688-8.273-29.961 0l-19.945 19.945c-8.273 8.273-8.273 21.687 0 29.961 8.273 8.273 21.687 8.273 29.961 0z"/></g><path d="m348.733 204.816h-61.373c-6.791 0-13.3 2.696-18.103 7.499l-47.794 47.793c-8.337 8.337-8.337 21.854 0 30.192l.001.001c8.336 8.336 21.851 8.337 30.188.002 5.525-5.525 24.613-24.612 28.97-28.968 4.599-4.597 10.829-7.174 17.332-7.174h50.779z" fill="#ffab66"/><path d="m348.733 249.16h-50.779c-5.014 0-10.084 1.495-14.365 3.832 2.521 2.521 5.042 5.042 7.563 7.563 2.078-.739 4.531-1.395 6.802-1.395h50.779c2.762 0 5-2.238 5-5s-2.238-5-5-5z" fill="#ff9d33"/></g><g><g><path d="m106.77 201.55v156.4c0 4.71-3.82 8.53-8.53 8.53h-34.26c-4.71 0-8.53-3.82-8.53-8.53v-156.4c0-4.72 3.82-8.54 8.53-8.54h34.26c4.71 0 8.53 3.82 8.53 8.54z" fill="#b3b3ff"/><path d="m106.77 204.82v48.55c-11.13-9.47-18.18-23.58-18.18-39.33 0-3.15.28-6.23.83-9.22z" fill="#9494ff"/></g><path d="m448.021 366.483h-34.262c-4.712 0-8.531-3.82-8.531-8.531v-156.406c0-4.712 3.82-8.531 8.531-8.531h34.262c4.712 0 8.531 3.819 8.531 8.531v156.405c0 4.712-3.819 8.532-8.531 8.532z" fill="#ff6c6c"/></g></g><g><g><g><path d="m266.138 176.188h-13.651c-2.761 0-5-2.239-5-5v-95.283c0-2.762 2.239-5 5-5h13.651c2.762 0 5 2.238 5 5v95.283c0 2.762-2.239 5-5 5z" fill="#ffab66"/><path d="m247.487 128.768v42.42c0 2.761 2.239 5 5 5h13.651c2.762 0 5-2.239 5-5v-42.42z" fill="#ff6c6c"/></g><g><path d="m306.683 176.188h-13.651c-2.761 0-5-2.239-5-5v-65.283c0-2.761 2.239-5 5-5h13.651c2.761 0 5 2.239 5 5v65.283c0 2.762-2.239 5-5 5z" fill="#ffab66"/><path d="m288.031 158.768v12.42c0 2.761 2.239 5 5 5h13.651c2.761 0 5-2.239 5-5v-12.42z" fill="#ff6c6c"/></g><g><path d="m347.227 176.188h-13.651c-2.761 0-5-2.239-5-5v-95.283c0-2.762 2.239-5 5-5h13.651c2.761 0 5 2.238 5 5v95.283c0 2.762-2.238 5-5 5z" fill="#ffab66"/><path d="m328.576 98.768v72.42c0 2.761 2.239 5 5 5h13.651c2.761 0 5-2.239 5-5v-72.42z" fill="#ff6c6c"/></g></g><g><g><path d="m220.508 138.702h-10.52c-2.762 0-5-2.239-5-5s2.238-5 5-5h10.52c2.762 0 5 2.239 5 5s-2.238 5-5 5z" fill="#ffab66"/></g><g><path d="m187.398 138.702h-4.52c-2.762 0-5-2.239-5-5s2.238-5 5-5h4.52c2.762 0 5 2.239 5 5s-2.238 5-5 5z" fill="#ffab66"/></g><g><path d="m220.508 158.978h-55.74c-2.762 0-5-2.239-5-5s2.238-5 5-5h55.74c2.762 0 5 2.239 5 5s-2.238 5-5 5z" fill="#8383ff"/></g><g><path d="m220.508 176.254h-55.74c-2.762 0-5-2.239-5-5s2.238-5 5-5h55.74c2.762 0 5 2.239 5 5 0 2.762-2.238 5-5 5z" fill="#8383ff"/></g></g></g></g><g><g><circle cx="140.213" cy="190.043" fill="#4d4dff" r="51.625"/></g><path d="m146.016 185.043h-.803v-7.973h7.872c2.761 0 5-2.238 5-5s-2.239-5-5-5h-7.872v-1.691c0-2.762-2.239-5-5-5s-5 2.238-5 5v1.691h-.803c-7.712 0-13.986 6.274-13.986 13.986s6.274 13.986 13.986 13.986h.803v7.972h-7.872c-2.761 0-5 2.238-5 5s2.239 5 5 5h7.872v1.691c0 2.762 2.239 5 5 5s5-2.238 5-5v-1.691h.803c7.712 0 13.986-6.274 13.986-13.986s-6.274-13.985-13.986-13.985zm-11.606 0c-2.198 0-3.986-1.788-3.986-3.986s1.788-3.986 3.986-3.986h.803v7.973h-.803zm11.606 17.972h-.803v-7.972h.803c2.198 0 3.986 1.788 3.986 3.986s-1.788 3.986-3.986 3.986z" fill="#fff"/></g><g><path d="m96.59 125.506c-1.28 0-2.559-.488-3.536-1.465l-4.464-4.464-4.464 4.464c-1.953 1.953-5.118 1.953-7.071 0-1.953-1.952-1.953-5.118 0-7.07l8-8c1.953-1.953 5.118-1.953 7.071 0l8 8c1.953 1.952 1.953 5.118 0 7.07-.977.977-2.256 1.465-3.536 1.465z" fill="#ff6c6c"/></g><g><path d="m176.732 454.428c-1.28 0-2.559-.488-3.536-1.465l-4.464-4.464-4.464 4.464c-1.953 1.953-5.118 1.953-7.071 0-1.953-1.952-1.953-5.118 0-7.07l8-8c1.953-1.953 5.118-1.953 7.071 0l8 8c1.953 1.952 1.953 5.118 0 7.07-.977.977-2.256 1.465-3.536 1.465z" fill="#ff6c6c"/></g><path d="m438.212 145.979h-3v-3c0-2.762-2.238-5-5-5s-5 2.238-5 5v3h-3c-2.762 0-5 2.238-5 5s2.238 5 5 5h3v3c0 2.762 2.238 5 5 5s5-2.238 5-5v-3h3c2.762 0 5-2.238 5-5s-2.238-5-5-5z" fill="#6c6cff"/><path d="m133.424 421.43h-3v-3c0-2.762-2.239-5-5-5s-5 2.238-5 5v3h-3c-2.761 0-5 2.238-5 5s2.239 5 5 5h3v3c0 2.762 2.239 5 5 5s5-2.238 5-5v-3h3c2.761 0 5-2.238 5-5s-2.239-5-5-5z" fill="#ffab66"/><g><path d="m430.374 107.226c-1.279 0-2.56-.488-3.535-1.465l-4.465-4.464-3.814 3.812c-1.951 1.953-5.119 1.953-7.07 0-1.953-1.952-1.953-5.118 0-7.07l7.349-7.349c1.951-1.953 5.119-1.953 7.07 0l8 8c1.953 1.952 1.953 5.118 0 7.07-.975.977-2.256 1.466-3.535 1.466z" fill="#ffab66"/></g></g></g></svg>