<svg id="Capa_1" enable-background="new 0 0 512 512" height="512" viewBox="0 0 512 512" width="512" xmlns="http://www.w3.org/2000/svg" xmlns:xlink="http://www.w3.org/1999/xlink"><linearGradient id="SVGID_1_" gradientTransform="matrix(0 -1 -1 0 494.4 -5322.99)" gradientUnits="userSpaceOnUse" x1="-5436.015" x2="-5940.544" y1="322.121" y2="131.932"><stop offset="0" stop-color="#d2deff" stop-opacity="0"/><stop offset="1" stop-color="#b7c5ff"/></linearGradient><linearGradient id="SVGID_2_" gradientUnits="userSpaceOnUse" x1="261.668" x2="261.668" y1="478.69" y2="143.356"><stop offset="0" stop-color="#ff4d4d" stop-opacity=".4"/><stop offset="1" stop-color="#ff4d4d" stop-opacity="0"/></linearGradient><g><g><g><path d="m180.252.001c-100.63.534-151.151 173.599-170.006 262.559-18.855 88.961.847 271.458 147.096 247.249 23.64-3.913 29.158-4.715 48.645-14.497 34.685-17.411 75.734-29.661 112.83-33.359 15.211-1.516 34.445-6.538 44.624-8.368 81.626-14.679 164.928-93.76 139.709-176.622-18.939-62.228-74.428-87.278-129.998-83.834-30.518 1.891-62.997-16.011-69.51-35.788-21.214-64.417-45.612-157.752-123.39-157.34z" fill="url(#SVGID_1_)"/></g><g><g><path d="m138.392 140.696h-3v-3c0-2.761-2.239-5-5-5s-5 2.239-5 5v3h-3c-2.761 0-5 2.239-5 5s2.239 5 5 5h3v3c0 2.761 2.239 5 5 5s5-2.239 5-5v-3h3c2.761 0 5-2.239 5-5s-2.239-5-5-5z" fill="#8383ff"/><path d="m98.667 424.943h-3v-3c0-2.761-2.239-5-5-5s-5 2.239-5 5v3h-3c-2.761 0-5 2.239-5 5s2.239 5 5 5h3v3c0 2.761 2.239 5 5 5s5-2.239 5-5v-3h3c2.761 0 5-2.239 5-5s-2.239-5-5-5z" fill="#ff6c6c"/><path d="m368.668 28.311h-3v-3c0-2.761-2.239-5-5-5s-5 2.239-5 5v3h-3c-2.761 0-5 2.239-5 5s2.239 5 5 5h3v3c0 2.761 2.239 5 5 5s5-2.239 5-5v-3h3c2.761 0 5-2.239 5-5s-2.24-5-5-5z" fill="#8383ff"/><path d="m429.333 170.645c-1.28 0-2.559-.488-3.536-1.464l-4.464-4.464-4.464 4.464c-1.953 1.952-5.118 1.952-7.071 0-1.953-1.953-1.953-5.119 0-7.071l8-8c1.953-1.952 5.118-1.952 7.071 0l8 8c1.953 1.953 1.953 5.119 0 7.071-.976.976-2.256 1.464-3.536 1.464z" fill="#ff6c6c"/><path d="m98.667 187.785c-1.28 0-2.559-.488-3.536-1.464l-4.464-4.464-4.464 4.464c-1.953 1.952-5.118 1.952-7.071 0-1.953-1.953-1.953-5.119 0-7.071l8-8c1.953-1.952 5.118-1.952 7.071 0l8 8c1.953 1.953 1.953 5.119 0 7.071-.977.976-2.257 1.464-3.536 1.464z" fill="#ff9d33"/><g><g><circle cx="261.667" cy="311.023" fill="#9494ff" r="167.667"/><path d="m429.333 311.023c0 72.237-45.683 133.798-109.732 157.388l-9.842-13.117 10.395-8.321-4.157-8.836-51.47 8.836-35.358-7.798-20.276-29.112 8.321-34.313 20.798-15.597v-11.44l15.074-11.955 16.634-1.037 32.753-11.44 12.22-2.082v16.119l33.011 4.679.522-11.44h16.119l21.836-8.313v-24.44l-17.679 7.798-8.836-15.597-7.284 4.679 9.881 15.34-8.321 4.936-8.836-8.313-4.679-14.56-20.798-14.037-5.194 5.716 21.836 19.239-6.761 9.358-9.881-11.44-14.552-12.478-15.238 10.7-9.202 6.457-8.313 19.239-18.202 5.716-3.751-2.145-7.167-4.094 2.082-14.295-2.082-8.056 3.642-8.321 21.188 2.597v-13.905l-6.371-6.371v-11.783h13.608l17.843-17.851v-10.395l-16.977-16.977 8.079-8.079v-16.08l12.017-12.025h23.918l9.358 9.358v-18.585l-10.395-12.478h-9.358l-20.019-16.377c79.237 13.359 139.596 82.298 139.596 165.328z" fill="#ff9494"/><circle cx="273.72" cy="393.501" fill="#ff6c6c" r="42.256"/><path d="m146.74 295.76c0 23.34-18.92 42.26-42.26 42.26-2.89 0-5.72-.29-8.45-.85-1.34-8.52-2.03-17.25-2.03-26.15 0-20.2 3.57-39.57 10.13-57.51h.35c23.34 0 42.26 18.91 42.26 42.25z" fill="#8383ff"/><path d="m350.997 169.115v27.47c0 2.03-1.23 3.86-3.12 4.63l-84.32 34.41c-1.21.49-2.57.49-3.78 0l-84.32-34.41c-1.89-.77-3.12-2.6-3.12-4.63v-27.47c25.86-16.32 56.49-25.76 89.33-25.76s63.47 9.44 89.33 25.76z" fill="#8383ff"/><g><g fill="#ff6c6c"><path d="m421.1 363.03c-8.95 27.47-24.8 51.81-45.5 70.99-10.35-7.7-17.05-20.02-17.05-33.91 0-23.34 18.92-42.26 42.26-42.26 7.361 0 14.27 1.88 20.29 5.18z"/><path d="m428.77 297.17c-2.85.6-5.8.92-8.82.92-23.34 0-42.26-18.92-42.26-42.26 0-16.59 9.56-30.95 23.47-37.86 15.39 23.02 25.22 50.05 27.61 79.2z"/><path d="m350.997 169.115v27.47c0 2.03-1.23 3.86-3.12 4.63l-64.26 26.22-7.48-7.47 8.08-8.08v-16.08l12.02-12.03h23.92l9.36 9.36v-18.59l-10.4-12.47h-9.36l-20.02-16.38c22.21 3.74 42.94 11.85 61.26 23.42z"/></g><path d="m256.73 164.669-11.963 12.478-5.716 15.987h-22.358l-32.231 23.005-6.761-10.497 23.395-27.451-7.798-.522-10.208 9.226-15.784 6.239-9.358 12.509 5.716 10.497-17.671 34.836-10.403-9.881v-11.433l-23.91 21.313-7.198 1.567c18.989-51.025 62.122-90.306 115.503-103.961l2.948 3.611 26.515 4.164z" fill="#ff9494"/><path d="m249.447 156.355 7.28 8.31-11.96 12.48-5.72 15.99h-22.35l-22.21 15.85-14.57-5.95 21.18-24.84-7.8-.53-10.21 9.23-10.75 4.25v-22.03c14.53-9.17 30.57-16.16 47.65-20.53l2.95 3.61z" fill="#ff6c6c"/></g><path d="m289.842 300.144-9.202 6.457-8.313 19.239-18.201 5.716-3.751-2.145 4.663-22.358-11.83-4.086 3.642-8.321 21.188 2.597z" fill="#ff6c6c"/></g><circle cx="261.667" cy="311.023" fill="url(#SVGID_2_)" r="167.667"/><g><path d="m350.997 99.296v77.29c0 2.03-1.23 3.86-3.12 4.63l-84.32 34.41c-1.21.49-2.57.49-3.78 0l-84.32-34.41c-1.89-.77-3.12-2.6-3.12-4.63v-77.29z" fill="#4d4dff"/><path d="m350.997 99.296v27.21l-81.77 33.36c-2.41.99-4.96 1.49-7.56 1.49s-5.15-.5-7.56-1.49l-81.77-33.36v-27.21z" fill="#2c27ff"/><path d="m259.778 33.681-126.275 51.521c-4.148 1.692-4.148 7.566 0 9.259l126.275 51.521c1.211.494 2.567.494 3.778 0l126.275-51.521c4.148-1.692 4.148-7.566 0-9.259l-126.275-51.521c-1.211-.494-2.567-.494-3.778 0z" fill="#8383ff"/><path d="m335.228 303.536h-25.123c-2.761 0-5-2.239-5-5v-29.029c0-9.699 7.863-17.562 17.562-17.562s17.562 7.863 17.562 17.562v29.029c-.001 2.762-2.239 5-5.001 5z" fill="#ff7300"/></g></g></g><g><circle cx="104.481" cy="275.925" fill="#ff6c6c" r="42.256"/><path d="m121.094 270.119c0-9.161-7.453-16.613-16.613-16.613s-16.613 7.453-16.613 16.613c0 4.518 1.818 8.615 4.755 11.613-2.936 2.998-4.755 7.095-4.755 11.613 0 2.761 2.238 5 5 5s5-2.239 5-5c0-3.646 2.967-6.613 6.613-6.613s6.613 2.967 6.613 6.613c0 2.761 2.238 5 5 5s5-2.239 5-5c0-4.518-1.818-8.615-4.755-11.613 2.937-2.998 4.755-7.095 4.755-11.613zm-16.613-6.614c3.646 0 6.613 2.967 6.613 6.613s-2.967 6.613-6.613 6.613-6.613-2.967-6.613-6.613 2.967-6.613 6.613-6.613z" fill="#fff"/></g><g><circle cx="400.805" cy="380.274" fill="#8383ff" r="42.256"/><path d="m417.418 374.468c0-9.161-7.453-16.613-16.613-16.613s-16.613 7.453-16.613 16.613c0 4.518 1.818 8.615 4.755 11.613-2.936 2.998-4.755 7.095-4.755 11.613 0 2.761 2.238 5 5 5s5-2.239 5-5c0-3.646 2.967-6.613 6.613-6.613s6.613 2.967 6.613 6.613c0 2.761 2.238 5 5 5s5-2.239 5-5c0-4.518-1.818-8.615-4.755-11.613 2.937-2.998 4.755-7.095 4.755-11.613zm-16.613-6.614c3.646 0 6.613 2.967 6.613 6.613s-2.967 6.613-6.613 6.613-6.613-2.967-6.613-6.613 2.967-6.613 6.613-6.613z" fill="#fff"/></g><g><circle cx="273.72" cy="373.664" fill="#ff9d33" r="42.256"/><path d="m290.334 367.858c0-9.161-7.453-16.613-16.613-16.613s-16.613 7.453-16.613 16.613c0 4.518 1.818 8.615 4.755 11.613-2.936 2.998-4.755 7.095-4.755 11.613 0 2.761 2.238 5 5 5s5-2.239 5-5c0-3.646 2.967-6.613 6.613-6.613s6.613 2.967 6.613 6.613c0 2.761 2.238 5 5 5s5-2.239 5-5c0-4.518-1.818-8.615-4.755-11.613 2.936-2.998 4.755-7.095 4.755-11.613zm-16.614-6.614c3.646 0 6.613 2.967 6.613 6.613s-2.967 6.613-6.613 6.613-6.613-2.967-6.613-6.613 2.967-6.613 6.613-6.613z" fill="#fff"/></g><g><circle cx="419.947" cy="235.993" fill="#ff6c6c" r="42.256"/><g><path d="m329.334 303.536v-20c0-2.761-2.239-5-5-5s-5 2.239-5 5v20z" fill="#ff2c2c"/><path d="m327.666 125.225c.001-2.97-1.311-5.294-7.052-7.923l-70.443-31.025c-2.526-1.114-5.478.032-6.591 2.561-1.113 2.527.033 5.478 2.561 6.591l61.594 27.128c5.979 2.23 9.775 4.016 9.931 6.748l-.001 94.268h10z" fill="#2626bc"/></g><path d="m436.56 230.186c0-9.161-7.453-16.613-16.613-16.613s-16.613 7.453-16.613 16.613c0 4.518 1.818 8.615 4.755 11.613-2.936 2.998-4.755 7.095-4.755 11.613 0 2.761 2.238 5 5 5s5-2.239 5-5c0-3.646 2.967-6.613 6.613-6.613s6.613 2.967 6.613 6.613c0 2.761 2.238 5 5 5s5-2.239 5-5c0-4.518-1.818-8.615-4.755-11.613 2.937-2.998 4.755-7.095 4.755-11.613zm-16.613-6.613c3.646 0 6.613 2.967 6.613 6.613s-2.967 6.613-6.613 6.613-6.613-2.967-6.613-6.613 2.966-6.613 6.613-6.613z" fill="#fff"/></g><circle cx="322.667" cy="240.998" fill="#ffc599" r="19.269"/></g></g></g></svg>