<svg id="Capa_1" enable-background="new 0 0 512 512" height="512" viewBox="0 0 512 512" width="512" xmlns="http://www.w3.org/2000/svg" xmlns:xlink="http://www.w3.org/1999/xlink"><linearGradient id="SVGID_1_" gradientTransform="matrix(1 0 0 -1 -561.6 -10842.99)" gradientUnits="userSpaceOnUse" x1="1068.089" x2="528.035" y1="-10954.263" y2="-11266.295"><stop offset="0" stop-color="#fff3ee" stop-opacity="0"/><stop offset=".2938" stop-color="#ffeade" stop-opacity=".373"/><stop offset=".7874" stop-color="#ffd6bb"/></linearGradient><linearGradient id="lg1"><stop offset="0" stop-color="#ff4d4d" stop-opacity=".4"/><stop offset="1" stop-color="#ff4d4d" stop-opacity="0"/></linearGradient><linearGradient id="SVGID_2_" gradientUnits="userSpaceOnUse" x1="361.271" x2="361.271" xlink:href="#lg1" y1="409.07" y2="100.77"/><linearGradient id="SVGID_3_" gradientUnits="userSpaceOnUse" x1="209.976" x2="209.976" xlink:href="#lg1" y1="439.74" y2="264.127"/><g><path d="m361.232 275.692c-56.758 0-102.769-46.011-102.769-102.769v-65.231c-.001-59.477-48.216-107.692-107.693-107.692s-107.693 48.215-107.693 107.692v86.154c0 175.712 142.443 318.154 318.153 318.154 59.477 0 107.692-48.215 107.692-107.692v-20.923c.001-59.477-48.214-107.693-107.69-107.693z" fill="url(#SVGID_1_)"/><path d="m409.854 39.952h-3v-3c0-2.762-2.238-5-5-5s-5 2.238-5 5v3h-3c-2.762 0-5 2.238-5 5s2.238 5 5 5h3v3c0 2.762 2.238 5 5 5s5-2.238 5-5v-3h3c2.762 0 5-2.238 5-5s-2.238-5-5-5z" fill="#ff9d33"/><path d="m381.668 459.198h-3v-3c0-2.762-2.238-5-5-5s-5 2.238-5 5v3h-3c-2.762 0-5 2.238-5 5s2.238 5 5 5h3v3c0 2.762 2.238 5 5 5s5-2.238 5-5v-3h3c2.762 0 5-2.238 5-5s-2.238-5-5-5z" fill="#ff9d33"/><path d="m72.304 261.738c-1.279 0-2.56-.488-3.535-1.465l-4.465-4.464-4.465 4.464c-1.951 1.953-5.119 1.953-7.07 0-1.953-1.952-1.953-5.118 0-7.07l8-8c1.951-1.953 5.119-1.953 7.07 0l8 8c1.953 1.952 1.953 5.118 0 7.07-.975.977-2.255 1.465-3.535 1.465z" fill="#ff6c6c"/><g fill="#8383ff"><path d="m88.304 297.917c-1.279 0-2.56-.488-3.535-1.465l-4.465-4.464-4.465 4.464c-1.951 1.953-5.119 1.953-7.07 0-1.953-1.952-1.953-5.118 0-7.07l8-8c1.951-1.953 5.119-1.953 7.07 0l8 8c1.953 1.952 1.953 5.118 0 7.07-.975.977-2.255 1.465-3.535 1.465z"/><path d="m436.333 77.344c-1.279 0-2.56-.488-3.535-1.465l-4.465-4.464-4.465 4.464c-1.951 1.953-5.119 1.953-7.07 0-1.953-1.952-1.953-5.118 0-7.07l8-8c1.951-1.953 5.119-1.953 7.07 0l8 8c1.953 1.952 1.953 5.118 0 7.07-.975.976-2.256 1.465-3.535 1.465z"/><path d="m448.861 117.26v16.5l-25.616 124.979 25.616 117.341v16.5c0 9.1-7.39 16.49-16.5 16.49h-142.18c-9.11 0-16.5-7.39-16.5-16.49v-33.519l22.53-116.571-22.53-86.633v-38.597c0-9.1 7.39-16.49 16.5-16.49h142.18c9.109 0 16.5 7.39 16.5 16.49z"/></g><g><path d="m390.431 397.62-11.45 11.45h-9.59l-30.32-30.32-14.04 14.04c-2.68 2.68-7.25 1.53-8.33-2.1l-20.34-68.21c-1.14-3.81 2.41-7.36 6.22-6.22l68.21 20.34c3.63 1.08 4.78 5.65 2.1 8.33l-14.04 14.04 31.58 31.58c1.949 1.95 1.949 5.12 0 7.07z" fill="#4d4dff"/></g><g><path d="m273.681 133.76h154.653l20.527 117.24v125.08h-175.18z" fill="#ebebff"/></g><g><path d="m273.681 133.76h175.18v117.24h-175.18z" fill="#fff"/></g><path d="m369.301 133.76v73.99c0 5.52-4.48 10-10 10h-38.29l-8.42 24.74c-2.66 7.82-13.72 7.82-16.38 0l-8.41-24.74h-14.12v-83.99z" fill="#ebebff"/><circle cx="385.539" cy="119.478" fill="#2c27ff" r="4.815"/><circle cx="401.855" cy="119.478" fill="#2c27ff" r="4.815"/><path d="m350.81 347.79v86.95c0 2.76-2.24 5-5 5h-228.19c-26.77 0-48.48-21.7-48.48-48.47 0-13.39 5.43-25.51 14.2-34.28 8.78-8.77 20.9-14.2 34.28-14.2h228.19c2.76 0 5 2.24 5 5z" fill="#ff6c6c"/><path d="m350.81 347.79v42.7l-11.74-11.74-14.04 14.04c-2.68 2.68-7.25 1.53-8.33-2.1l-14.28-47.9h43.39c2.76 0 5 2.24 5 5z" fill="#ff4d4d"/><path d="m448.861 117.26v275.32c0 9.1-7.39 16.49-16.5 16.49h-142.18c-9.11 0-16.5-7.39-16.5-16.49v-275.32c0-9.1 7.39-16.49 16.5-16.49h142.18c9.109 0 16.5 7.39 16.5 16.49z" fill="url(#SVGID_2_)"/><path d="m350.81 365.87v50.79h-231.33c-14.03 0-25.4-11.37-25.4-25.39 0-7.01 2.84-13.37 7.44-17.96 4.6-4.6 10.94-7.44 17.96-7.44z" fill="#fff"/><path d="m350.81 365.87v24.62l-11.74-11.74-14.04 14.04c-2.68 2.68-7.25 1.53-8.33-2.1l-7.4-24.82z" fill="#fee"/><path d="m117.201 342.793h185.169c21.723 0 39.333-17.61 39.333-39.333s-17.61-39.333-39.333-39.333h-185.169c-2.241 0-4.057 1.816-4.057 4.057v70.552c0 2.241 1.817 4.057 4.057 4.057z" fill="#ff9d33"/><path d="m113.144 324.067h187.714c11.381 0 20.607-9.226 20.607-20.607s-9.226-20.607-20.607-20.607h-187.714z" fill="#fff"/><path d="m345.81 342.79h-43.323c21.668-.064 39.215-17.647 39.215-39.33 0-21.723-17.61-39.333-39.333-39.333h-185.168c-2.241 0-4.057 1.816-4.057 4.057v70.552c-.001 2.241 1.816 4.057 4.057 4.057h.301c-13.333.032-25.408 5.453-34.162 14.197-8.77 8.77-14.2 20.89-14.2 34.28 0 26.77 21.71 48.47 48.48 48.47h228.19c2.76 0 5-2.24 5-5v-86.95c0-2.76-2.239-5-5-5z" fill="url(#SVGID_3_)"/><path d="m370.788 315.473-68.208-20.341c-3.809-1.136-7.356 2.412-6.22 6.22l20.341 68.208c1.082 3.629 5.649 4.784 8.327 2.107l14.043-14.043 31.581 31.581c1.953 1.953 5.118 1.953 7.071 0l12.711-12.711c1.953-1.953 1.953-5.118 0-7.071l-31.581-31.581 14.043-14.043c2.677-2.677 1.521-7.244-2.108-8.326z" fill="#8383ff"/><path d="m369.305 66.623v120c0 5.52-4.48 10-10 10h-38.29l-8.42 24.74c-2.66 7.82-13.72 7.82-16.38 0l-8.41-24.74h-218.5c-5.52 0-10-4.48-10-10v-120c0-5.52 4.48-10 10-10h290c5.519 0 10 4.48 10 10z" fill="#ffc599"/><path d="m174.555 81.143c0 23.34-18.92 42.26-42.25 42.26-23.34 0-42.26-18.92-42.26-42.26 0-9.14 2.91-17.61 7.85-24.52h68.81c4.94 6.91 7.85 15.38 7.85 24.52z" fill="#ff9d33"/><g fill="#ff7300"><path d="m185.305 162.408h-90.046c-2.611 0-4.943 1.909-5.191 4.508-.285 2.982 2.053 5.492 4.976 5.492h90.26c2.761 0 5-2.239 5-5 .001-2.762-2.238-5-4.999-5z"/><path d="m333.349 162.408h-122.544c-2.761 0-5 2.239-5 5s2.239 5 5 5h122.76c2.924 0 5.261-2.51 4.976-5.492-.248-2.599-2.58-4.508-5.192-4.508z"/></g><g><path d="m95.045 142.905h238.52c2.762 0 5 2.239 5 5s-2.238 5-5 5h-238.52c-2.762 0-5-2.239-5-5s2.238-5 5-5z" fill="#ff4d4d"/></g><g><path d="m282.128 123.403h51.436c2.762 0 5 2.239 5 5s-2.238 5-5 5h-51.436c-2.762 0-5-2.239-5-5 0-2.762 2.238-5 5-5z" fill="#ff4d4d"/></g><g><path d="m95.045 123.403h163.26c2.762 0 5 2.239 5 5s-2.238 5-5 5h-163.26c-2.762 0-5-2.239-5-5 0-2.762 2.238-5 5-5z" fill="#ff4d4d"/></g><circle cx="315.576" cy="100.871" fill="#8383ff" r="5"/><circle cx="331.826" cy="100.871" fill="#8383ff" r="5"/><circle cx="132.301" cy="63.615" fill="#ff6c6c" r="42.256"/><path d="m148.915 57.809c0-9.161-7.453-16.613-16.613-16.613s-16.613 7.453-16.613 16.613c0 4.518 1.818 8.615 4.755 11.613-2.936 2.998-4.755 7.095-4.755 11.613 0 2.761 2.238 5 5 5s5-2.239 5-5c0-3.646 2.967-6.613 6.613-6.613s6.613 2.967 6.613 6.613c0 2.761 2.238 5 5 5s5-2.239 5-5c0-4.518-1.818-8.615-4.755-11.613 2.936-2.998 4.755-7.096 4.755-11.613zm-16.614-6.614c3.646 0 6.613 2.967 6.613 6.613s-2.967 6.613-6.613 6.613-6.613-2.967-6.613-6.613 2.966-6.613 6.613-6.613z" fill="#fff"/><circle cx="401.855" cy="252.738" fill="#ff6c6c" r="21.389"/></g></svg>