<svg id="Capa_1" enable-background="new 0 0 512 512" height="512" viewBox="0 0 512 512" width="512" xmlns="http://www.w3.org/2000/svg" xmlns:xlink="http://www.w3.org/1999/xlink"><linearGradient id="SVGID_1_" gradientTransform="matrix(1 0 0 -1 -561.6 -6586.99)" gradientUnits="userSpaceOnUse" x1="998.685" x2="557.6" y1="-6661.905" y2="-7102.99"><stop offset="0" stop-color="#ffd9d9" stop-opacity="0"/><stop offset=".9981" stop-color="#ffb3b3"/></linearGradient><linearGradient id="SVGID_2_" gradientUnits="userSpaceOnUse" x1="234.957" x2="234.957" y1="460.805" y2="36.205"><stop offset="0" stop-color="#ff4d4d" stop-opacity=".4"/><stop offset="1" stop-color="#ff4d4d" stop-opacity="0"/></linearGradient><g><g><path d="m411.152 155.152c-29.991 0-54.303-24.312-54.303-54.303 0-55.698-45.152-100.849-100.849-100.849s-100.848 45.151-100.848 100.848c0 29.991-24.312 54.303-54.303 54.303-55.698.001-100.849 45.152-100.849 100.849s45.151 100.848 100.848 100.848c29.991 0 54.303 24.312 54.303 54.303.001 55.698 45.152 100.849 100.849 100.849s100.848-45.151 100.848-100.848c0-29.991 24.312-54.303 54.303-54.303 55.698-.001 100.849-45.152 100.849-100.849s-45.151-100.848-100.848-100.848z" fill="url(#SVGID_1_)"/><g><g><path d="m372.307 45.605v405.8c0 5.19-4.21 9.4-9.4 9.4h-255.9c-5.19 0-9.4-4.21-9.4-9.4v-405.8c0-5.19 4.21-9.4 9.4-9.4h255.9c5.19 0 9.4 4.21 9.4 9.4z" fill="#fff"/><g fill="#ebebff"><path d="m372.307 346.625v59.99l-31.15-31.15c-3.32-3.31-3.44-8.59-.4-12.06l-40.16-40.16c-41.95 32.87-102.98 30.01-141.6-8.61-41.72-41.72-41.72-109.6 0-151.32s109.6-41.72 151.32 0c38.62 38.62 41.49 99.65 8.61 141.6l40.16 40.16c3.47-3.04 8.75-2.92 12.06.39z"/><path d="m139.866 380.345c0 23.34-18.92 42.26-42.26 42.26v-84.52c23.341 0 42.26 18.92 42.26 42.26z"/></g><path d="m372.307 45.605v303.9h-274.7v-303.9c0-5.19 4.21-9.4 9.4-9.4h255.9c5.19 0 9.4 4.21 9.4 9.4z" fill="#ffd9d9"/><path d="m372.307 346.625v2.88h-45.45l-26.26-26.26c-41.95 32.87-102.98 30.01-141.6-8.61-41.72-41.72-41.72-109.6 0-151.32s109.6-41.72 151.32 0c38.62 38.62 41.49 99.65 8.61 141.6l40.16 40.16c3.47-3.04 8.75-2.92 12.06.39z" fill="#ff9494"/><path d="m372.307 85.037v-39.423c0-5.197-4.213-9.41-9.41-9.41h-255.881c-5.197 0-9.41 4.213-9.41 9.41v39.423z" fill="#ff6c6c"/><g><g><g><path d="m179.475 85.037 36.833-48.833h-109.297c-5.194 0-9.405 4.211-9.405 9.405v39.427z" fill="#8383ff"/><g><path d="m341.612 67.069h-113.255c-2.597 0-4.703-2.106-4.703-4.703s2.105-4.703 4.703-4.703h113.255c2.597 0 4.703 2.106 4.703 4.703s-2.105 4.703-4.703 4.703z" fill="#ffd9d9"/></g></g></g></g><g><g><g><g><path d="m312.216 417.54h-154.52c-2.762 0-5 2.239-5 5s2.238 5 5 5h154.52c2.762 0 5-2.239 5-5s-2.238-5-5-5z" fill="#9494ff"/></g><g><path d="m194.133 398.037h-36.436c-2.762 0-5 2.239-5 5s2.238 5 5 5h36.436c2.762 0 5-2.239 5-5s-2.238-5-5-5z" fill="#9494ff"/></g><g><path d="m218.171 398.037h75.668c2.761 0 5 2.239 5 5s-2.239 5-5 5h-75.883c-2.924 0-5.261-2.51-4.976-5.492.248-2.599 2.58-4.508 5.191-4.508z" fill="#9494ff"/></g></g></g><g fill="#9494ff"><circle cx="175.685" cy="378.506" r="5"/><circle cx="159.435" cy="378.506" r="5"/></g></g><path d="m372.307 45.605v405.8c0 5.19-4.21 9.4-9.4 9.4h-255.9c-5.19 0-9.4-4.21-9.4-9.4v-405.8c0-5.19 4.21-9.4 9.4-9.4h255.9c5.19 0 9.4 4.21 9.4 9.4z" fill="url(#SVGID_2_)"/><g><path d="m292.551 290.335 18.326-18.325 55.613 55.613-18.325 18.326z" fill="#9494ff"/><path d="m292.613 290.33 18.661 18.661c3.338-2.687 6.555-5.579 9.652-8.676s5.989-6.314 8.676-9.652l-18.661-18.661z" fill="#8383ff"/><g><path d="m310.321 289.71c-41.719 41.719-109.601 41.719-151.321 0s-41.719-109.602 0-151.321 109.602-41.719 151.321 0 41.719 109.601 0 151.321z" fill="#9494ff"/></g><ellipse cx="234.612" cy="214.051" fill="#ffd9d9" rx="80.473" ry="80.473"/><path d="m284.457 150.815-113.03 113.03c-4.47-5.66-8.06-11.79-10.78-18.2l105.61-105.61c6.41 2.72 12.54 6.31 18.2 10.78z" fill="#fee"/><path d="m314.406 203.375-90.42 90.42c-16.25-2.15-31.97-9.26-44.68-21.32l113.78-113.78c12.06 12.71 19.171 28.43 21.32 44.68z" fill="#fee"/><path d="m454.062 415.951-17.499 17.499c-3.452 3.452-9.048 3.452-12.499 0l-82.911-82.911c-3.452-3.452-3.452-9.048 0-12.499l17.499-17.499c3.452-3.452 9.048-3.452 12.499 0l82.911 82.911c3.451 3.452 3.451 9.048 0 12.499z" fill="#ff9494"/><path d="m410.239 419.626 13.824 13.824c3.452 3.452 9.048 3.452 12.499 0l17.499-17.499c3.452-3.452 3.452-9.048 0-12.499l-13.824-13.824z" fill="#8383ff"/><path d="m353.242 362.705 29.994-29.994 19.796 19.796-29.994 29.994z" fill="#ff6c6c"/></g><g fill="#ff4d4d"><path d="m228.491 243.315c-2.762 0-5-2.239-5-5v-6.016c0-3.881 1.018-7.713 2.943-11.084 2.948-5.159 7.917-8.984 13.633-10.496 8.729-2.307 14.826-10.234 14.826-19.277 0-5.43-2.145-10.506-6.037-14.293-3.891-3.785-9.026-5.783-14.468-5.636-10.445.289-19.132 9.024-19.364 19.473-.049 2.182.251 4.33.89 6.385.82 2.637-.653 5.439-3.29 6.259-2.635.82-5.439-.652-6.259-3.29-.961-3.089-1.411-6.311-1.339-9.576.355-15.959 13.131-28.806 29.085-29.248 8.175-.22 15.874 2.78 21.718 8.464 5.845 5.686 9.064 13.308 9.064 21.461 0 13.577-9.158 25.48-22.271 28.945-3.143.831-5.878 2.941-7.505 5.789-1.064 1.862-1.627 3.979-1.627 6.123v6.016c.001 2.762-2.237 5.001-4.999 5.001z"/><path d="m228.491 262.509c-2.762 0-5-2.239-5-5v-.106c0-2.761 2.238-5 5-5s5 2.239 5 5v.106c0 2.762-2.238 5-5 5z"/></g><g><circle cx="97.606" cy="361.417" fill="#ff6c6c" r="42.256"/><path d="m114.219 355.61c0-9.161-7.453-16.613-16.613-16.613s-16.613 7.453-16.613 16.613c0 4.518 1.818 8.615 4.755 11.613-2.936 2.998-4.755 7.095-4.755 11.613 0 2.761 2.238 5 5 5s5-2.239 5-5c0-3.646 2.967-6.613 6.613-6.613s6.613 2.967 6.613 6.613c0 2.761 2.238 5 5 5s5-2.239 5-5c0-4.518-1.818-8.615-4.755-11.613 2.937-2.997 4.755-7.095 4.755-11.613zm-16.613-6.613c3.646 0 6.613 2.967 6.613 6.613s-2.967 6.613-6.613 6.613-6.613-2.967-6.613-6.613 2.966-6.613 6.613-6.613z" fill="#fff"/></g></g><path d="m438.333 154.913h-3v-3c0-2.761-2.238-5-5-5s-5 2.239-5 5v3h-3c-2.762 0-5 2.239-5 5s2.238 5 5 5h3v3c0 2.761 2.238 5 5 5s5-2.239 5-5v-3h3c2.762 0 5-2.239 5-5s-2.238-5-5-5z" fill="#8383ff"/><path d="m68.333 251.505h-3v-3c0-2.761-2.238-5-5-5s-5 2.239-5 5v3h-3c-2.762 0-5 2.239-5 5s2.238 5 5 5h3v3c0 2.761 2.238 5 5 5s5-2.239 5-5v-3h3c2.762 0 5-2.239 5-5s-2.238-5-5-5z" fill="#ff9d33"/><path d="m419.114 210.855c-1.279 0-2.56-.488-3.535-1.464l-4.465-4.464-4.465 4.464c-1.951 1.952-5.119 1.952-7.07 0-1.953-1.953-1.953-5.119 0-7.071l8-8c1.951-1.952 5.119-1.952 7.07 0l8 8c1.953 1.953 1.953 5.119 0 7.071-.975.976-2.255 1.464-3.535 1.464z" fill="#ff6c6c"/><path d="m60.333 303.497c-1.279 0-2.56-.488-3.535-1.464l-4.465-4.464-4.465 4.464c-1.951 1.952-5.119 1.952-7.07 0-1.953-1.953-1.953-5.119 0-7.071l8-8c1.951-1.952 5.119-1.952 7.07 0l8 8c1.953 1.953 1.953 5.119 0 7.071-.975.975-2.256 1.464-3.535 1.464z" fill="#8383ff"/><path d="m460.333 370.417c-1.279 0-2.56-.488-3.535-1.464l-4.465-4.464-4.465 4.464c-1.951 1.952-5.119 1.952-7.07 0-1.953-1.953-1.953-5.119 0-7.071l8-8c1.951-1.952 5.119-1.952 7.07 0l8 8c1.953 1.953 1.953 5.119 0 7.071-.975.976-2.256 1.464-3.535 1.464z" fill="#ff9d33"/></g></g></g></svg>