<svg id="Capa_1" enable-background="new 0 0 512 512" height="512" viewBox="0 0 512 512" width="512" xmlns="http://www.w3.org/2000/svg" xmlns:xlink="http://www.w3.org/1999/xlink"><linearGradient id="SVGID_1_" gradientTransform="matrix(1 0 0 -1 -561.6 -5522.99)" gradientUnits="userSpaceOnUse" x1="863.508" x2="755.497" y1="-5468.016" y2="-6173.088"><stop offset="0" stop-color="#ffd9d9" stop-opacity="0"/><stop offset=".9981" stop-color="#ffb3b3"/></linearGradient><linearGradient id="SVGID_2_" gradientUnits="userSpaceOnUse" x1="216.897" x2="216.897" y1="443.877" y2="45.581"><stop offset="0" stop-color="#ff4d4d" stop-opacity=".4"/><stop offset="1" stop-color="#ff4d4d" stop-opacity="0"/></linearGradient><g><g><path d="m338.919 70.183c-1.369 0-2.734.012-4.096.037-33.932.616-66.631-11.72-93.007-33.075-23.389-18.936-53.236-30.21-85.724-29.998-74.135.484-135.234 63.074-134.007 137.2.33 19.96 4.996 38.864 13.096 55.813 13.801 28.879 10.825 63.235-8.352 88.861-7.92 10.584-14.402 22.515-19.061 35.605-24.826 69.757 11.848 147.296 81.551 172.272 70.982 25.434 148.823-12.162 173.19-83.256 1.805-5.266 3.265-10.567 4.393-15.878 7.162-33.729 36.586-57.876 71.067-57.732.317.001.634.002.951.002 95.59 0 173.08-60.408 173.08-134.925s-77.492-134.926-173.081-134.926z" fill="url(#SVGID_1_)"/><g><path d="m428.723 79.773h-3.385v-3.385c0-2.761-2.238-5-5-5s-5 2.239-5 5v3.385h-3.385c-2.762 0-5 2.239-5 5s2.238 5 5 5h3.385v3.384c0 2.761 2.238 5 5 5s5-2.239 5-5v-3.384h3.385c2.762 0 5-2.239 5-5s-2.239-5-5-5z" fill="#8383ff"/><path d="m378.866 432h-3.384v-3.385c0-2.761-2.238-5-5-5s-5 2.239-5 5v3.385h-3.385c-2.762 0-5 2.239-5 5s2.238 5 5 5h3.385v3.385c0 2.761 2.238 5 5 5s5-2.239 5-5v-3.385h3.384c2.762 0 5-2.239 5-5s-2.238-5-5-5z" fill="#ff6c6c"/><path d="m411.953 405.894h-3.385v-3.385c0-2.761-2.238-5-5-5s-5 2.239-5 5v3.385h-3.385c-2.762 0-5 2.239-5 5s2.238 5 5 5h3.385v3.384c0 2.761 2.238 5 5 5s5-2.239 5-5v-3.384h3.385c2.762 0 5-2.239 5-5s-2.238-5-5-5z" fill="#ff9d33"/><path d="m68.339 349.808c-1.28 0-2.559-.488-3.536-1.464l-4.849-4.849-4.849 4.849c-1.953 1.953-5.118 1.952-7.071 0-1.953-1.953-1.953-5.119 0-7.071l8.385-8.384c1.954-1.952 5.119-1.951 7.071 0l8.384 8.384c1.953 1.953 1.953 5.119 0 7.071-.976.975-2.255 1.464-3.535 1.464z" fill="#ff6c6c"/><path d="m387.251 58.348c-1.279 0-2.56-.488-3.535-1.464l-4.85-4.849-4.848 4.849c-1.953 1.953-5.118 1.954-7.071 0-1.953-1.953-1.953-5.118-.001-7.071l8.384-8.385c.938-.938 2.21-1.465 3.536-1.465s2.598.527 3.535 1.464l8.385 8.385c1.953 1.953 1.953 5.119 0 7.071-.975.977-2.256 1.465-3.535 1.465z" fill="#ff9d33"/><g><g><g><path d="m99.309 427.386v-365.313c0-9.108 7.384-16.492 16.492-16.492h202.19c9.108 0 16.492 7.384 16.492 16.492v365.312c0 9.108-7.384 16.492-16.492 16.492h-202.19c-9.108 0-16.492-7.383-16.492-16.491z" fill="#8383ff"/><g><path d="m99.31 78.574h235.17v332.32h-235.17z" fill="#ffc599"/></g><path d="m334.48 152.564v224.42h-52.27c-2.76 0-5.26-1.12-7.07-2.93s-2.93-4.31-2.93-7.07c0 5.52-4.48 10-10 10h-82.84v-154.47h-80.06v-103.8h87.55c2.76 0 5 2.24 5 5v28.85h55.35c6.91 0 13.15 2.8 17.68 7.32 4.52 4.53 7.32 10.77 7.32 17.68 0-13.8 11.2-25 25-25z" fill="#ff9d33"/></g><g fill="#2c27ff"><circle cx="271.165" cy="64.288" r="4.815"/><circle cx="287.481" cy="64.288" r="4.815"/></g></g><path d="m99.309 427.386v-365.313c0-9.108 7.384-16.492 16.492-16.492h202.19c9.108 0 16.492 7.384 16.492 16.492v365.312c0 9.108-7.384 16.492-16.492 16.492h-202.19c-9.108 0-16.492-7.383-16.492-16.491z" fill="url(#SVGID_2_)"/><g><g><path d="m272.21 157.523v189.42c0 5.52-4.48 10-10 10h-82.84v-224.42h67.84c13.81 0 25 11.19 25 25z" fill="#fff"/><path d="m191.86 132.523v84.99c0 2.77-2.24 5-5 5h-7.49v-89.99z" fill="#ebebff"/><g><g><path d="m179.37 259.35h64.114c2.762 0 5 2.239 5 5s-2.238 5-5 5h-64.114z" fill="#8383ff"/></g><g><path d="m179.37 278.853h64.114c2.762 0 5 2.239 5 5s-2.238 5-5 5h-64.114z" fill="#8383ff"/></g><g><path d="m179.37 298.356h64.114c2.762 0 5 2.239 5 5s-2.238 5-5 5h-64.114z" fill="#8383ff"/></g><g><path d="m179.37 317.858h64.114c2.762 0 5 2.239 5 5s-2.238 5-5 5h-64.114z" fill="#8383ff"/></g></g><path d="m282.213 356.94h142.999c5.523 0 10-4.477 10-10v-204.419c0-5.523-4.477-10-10-10h-127.999c-13.807 0-25 11.193-25 25v189.419c0 5.522 4.478 10 10 10z" fill="#fff"/></g><g><g><g><g><path d="m343.992 171.837h-43.52c-2.762 0-5-2.239-5-5s2.238-5 5-5h43.52c2.762 0 5 2.239 5 5s-2.238 5-5 5z" fill="#ff6c6c"/></g><g><path d="m343.992 191.34h-43.52c-2.762 0-5-2.239-5-5s2.238-5 5-5h43.52c2.762 0 5 2.239 5 5s-2.238 5-5 5z" fill="#ff6c6c"/></g><g><path d="m343.992 210.842h-43.52c-2.762 0-5-2.239-5-5s2.238-5 5-5h43.52c2.762 0 5 2.239 5 5s-2.238 5-5 5z" fill="#ff6c6c"/></g><g><path d="m343.992 230.345h-43.52c-2.762 0-5-2.239-5-5s2.238-5 5-5h43.52c2.762 0 5 2.239 5 5s-2.238 5-5 5z" fill="#ff6c6c"/></g><g><path d="m343.992 249.848h-43.52c-2.762 0-5-2.239-5-5s2.238-5 5-5h43.52c2.762 0 5 2.239 5 5s-2.238 5-5 5z" fill="#ff6c6c"/></g></g><g><g><path d="m406.953 171.837h-43.52c-2.762 0-5-2.239-5-5s2.238-5 5-5h43.52c2.762 0 5 2.239 5 5s-2.238 5-5 5z" fill="#ff6c6c"/></g><g><path d="m406.953 191.34h-43.52c-2.762 0-5-2.239-5-5s2.238-5 5-5h43.52c2.762 0 5 2.239 5 5s-2.238 5-5 5z" fill="#ff6c6c"/></g><g><path d="m406.953 210.842h-43.52c-2.762 0-5-2.239-5-5s2.238-5 5-5h43.52c2.762 0 5 2.239 5 5s-2.238 5-5 5z" fill="#ff6c6c"/></g><g><path d="m406.953 230.345h-43.52c-2.762 0-5-2.239-5-5s2.238-5 5-5h43.52c2.762 0 5 2.239 5 5s-2.238 5-5 5z" fill="#ff6c6c"/></g><g><path d="m406.953 249.848h-43.52c-2.762 0-5-2.239-5-5s2.238-5 5-5h43.52c2.762 0 5 2.239 5 5s-2.238 5-5 5z" fill="#ff6c6c"/></g></g></g><g><g><g><path d="m343.992 269.35h-43.52c-2.762 0-5-2.239-5-5s2.238-5 5-5h43.52c2.762 0 5 2.239 5 5s-2.238 5-5 5z" fill="#ff9d33"/></g><g><path d="m343.992 288.853h-43.52c-2.762 0-5-2.239-5-5s2.238-5 5-5h43.52c2.762 0 5 2.239 5 5s-2.238 5-5 5z" fill="#ff9d33"/></g><g><path d="m343.992 308.356h-43.52c-2.762 0-5-2.239-5-5s2.238-5 5-5h43.52c2.762 0 5 2.239 5 5s-2.238 5-5 5z" fill="#ff9d33"/></g><g><path d="m343.992 327.858h-43.52c-2.762 0-5-2.239-5-5s2.238-5 5-5h43.52c2.762 0 5 2.239 5 5s-2.238 5-5 5z" fill="#ff9d33"/></g></g><g><g><path d="m406.953 269.35h-43.52c-2.762 0-5-2.239-5-5s2.238-5 5-5h43.52c2.762 0 5 2.239 5 5s-2.238 5-5 5z" fill="#ff9d33"/></g><g><path d="m406.953 288.853h-43.52c-2.762 0-5-2.239-5-5s2.238-5 5-5h43.52c2.762 0 5 2.239 5 5s-2.238 5-5 5z" fill="#ff9d33"/></g><g><path d="m406.953 308.356h-43.52c-2.762 0-5-2.239-5-5s2.238-5 5-5h43.52c2.762 0 5 2.239 5 5s-2.238 5-5 5z" fill="#ff9d33"/></g><g><path d="m406.953 327.858h-43.52c-2.762 0-5-2.239-5-5s2.238-5 5-5h43.52c2.762 0 5 2.239 5 5s-2.238 5-5 5z" fill="#ff9d33"/></g></g></g></g></g><g><g><path d="m186.86 202.469h-105.074c-2.761 0-5-2.239-5-5v-93.805c0-2.761 2.239-5 5-5h105.074c2.761 0 5 2.239 5 5v93.805c0 2.762-2.239 5-5 5z" fill="#ff6c6c"/><path d="m191.86 127.349v-23.685c0-2.761-2.239-5-5-5h-105.074c-2.761 0-5 2.239-5 5v23.685z" fill="#fff"/></g><path d="m120.91 148.908v24.317c0 2.316 2.513 3.758 4.513 2.591l20.825-12.159c1.983-1.158 1.983-4.024 0-5.182l-20.825-12.159c-2-1.166-4.513.276-4.513 2.592z" fill="#fff"/><g fill="#ff6c6c"><circle cx="96.175" cy="116.016" r="3.5"/><circle cx="107.341" cy="116.016" r="3.5"/><circle cx="118.508" cy="116.016" r="3.5"/></g></g></g></g></g></g></svg>