<svg id="Capa_1" enable-background="new 0 0 511.999 511.999" height="512" viewBox="0 0 511.999 511.999" width="512" xmlns="http://www.w3.org/2000/svg" xmlns:xlink="http://www.w3.org/1999/xlink"><linearGradient id="SVGID_1_" gradientTransform="matrix(1 0 0 -1 -561.6 -7650.991)" gradientUnits="userSpaceOnUse" x1="1065.072" x2="582.024" y1="-8191.353" y2="-7636.298"><stop offset="0" stop-color="#ffd9d9" stop-opacity="0"/><stop offset=".9981" stop-color="#ffb3b3"/></linearGradient><linearGradient id="SVGID_2_" gradientUnits="userSpaceOnUse" x1="256.001" x2="256.001" y1="378.634" y2="111.689"><stop offset="0" stop-color="#ff4d4d" stop-opacity=".4"/><stop offset="1" stop-color="#ff4d4d" stop-opacity="0"/></linearGradient><g><g><path d="m500.574 200.6c7.18-16.204 11.241-34.098 11.419-52.921.684-71.971-56.211-132.099-128.121-135.166-23.591-1.006-45.905 4.091-65.495 13.843-39.321 19.575-85.436 19.575-124.757 0-19.589-9.752-41.903-14.849-65.494-13.843-71.908 3.068-128.803 63.194-128.12 135.166.179 18.823 4.239 36.717 11.419 52.921 15.628 35.269 15.628 75.53 0 110.8-7.18 16.204-11.241 34.099-11.419 52.922-.683 71.972 56.212 132.098 128.122 135.165 23.591 1.006 45.905-4.091 65.494-13.843 39.321-19.575 85.435-19.575 124.755 0 19.589 9.752 41.904 14.849 65.495 13.843 71.909-3.067 128.804-63.194 128.121-135.165-.179-18.823-4.239-36.717-11.419-52.921-15.628-35.271-15.628-75.532 0-110.801z" fill="url(#SVGID_1_)"/><g><path d="m253.155 63.191h-3v-3c0-2.762-2.239-5-5-5s-5 2.238-5 5v3h-3c-2.761 0-5 2.238-5 5s2.239 5 5 5h3v3c0 2.762 2.239 5 5 5s5-2.238 5-5v-3h3c2.761 0 5-2.238 5-5s-2.239-5-5-5z" fill="#ff9d33"/><path d="m410.186 448.656h-3v-3c0-2.762-2.238-5-5-5s-5 2.238-5 5v3h-3c-2.762 0-5 2.238-5 5s2.238 5 5 5h3v3c0 2.762 2.238 5 5 5s5-2.238 5-5v-3h3c2.762 0 5-2.238 5-5s-2.238-5-5-5z" fill="#8383ff"/><path d="m59.956 79.191h-3v-3c0-2.762-2.239-5-5-5s-5 2.238-5 5v3h-3c-2.761 0-5 2.238-5 5s2.239 5 5 5h3v3c0 2.762 2.239 5 5 5s5-2.238 5-5v-3h3c2.761 0 5-2.238 5-5s-2.239-5-5-5z" fill="#ff9d33"/><path d="m362.365 448.656c-1.279 0-2.56-.488-3.535-1.465l-4.465-4.464-4.465 4.464c-1.951 1.953-5.119 1.953-7.07 0-1.953-1.952-1.953-5.118 0-7.07l8-8c1.951-1.953 5.119-1.953 7.07 0l8 8c1.953 1.952 1.953 5.118 0 7.07-.975.977-2.256 1.465-3.535 1.465z" fill="#8383ff"/><path d="m209.731 48.179c-1.28 0-2.559-.488-3.536-1.465l-4.464-4.464-4.464 4.464c-1.953 1.953-5.118 1.953-7.071 0-1.953-1.952-1.953-5.118 0-7.07l8-8c1.953-1.953 5.118-1.953 7.071 0l8 8c1.953 1.952 1.953 5.118 0 7.07-.977.976-2.256 1.465-3.536 1.465z" fill="#ff6c6c"/><g><g><g><path d="m452.044 378.634h-392.088v-249.735c0-9.505 7.705-17.21 17.21-17.21h357.669c9.505 0 17.21 7.705 17.21 17.21v249.735z" fill="#8383ff"/><path d="m423.828 330.975h-335.656c-2.761 0-5-2.239-5-5v-184.431c0-2.761 2.239-5 5-5h335.656c2.761 0 5 2.239 5 5v184.432c0 2.761-2.239 4.999-5 4.999z" fill="#fff"/><path d="m428.83 267v58.98c0 2.76-2.24 5-5 5h-335.66c-2.76 0-5-2.24-5-5v-58.98z" fill="#ff9494"/><g><g><g><g><path d="m335.667 191.693h67.52c2.762 0 5-2.239 5-5s-2.238-5-5-5h-67.52c-2.762 0-5 2.239-5 5s2.238 5 5 5z" fill="#8383ff"/></g><g><path d="m362 209.195h41.186c2.762 0 5-2.239 5-5s-2.238-5-5-5h-41.186c-2.762 0-5 2.239-5 5s2.238 5 5 5z" fill="#8383ff"/></g></g><g><g><path d="m362 226.698h41.186c2.762 0 5-2.239 5-5s-2.238-5-5-5h-41.186c-2.762 0-5 2.239-5 5s2.238 5 5 5z" fill="#8383ff"/></g></g><g fill="#8383ff"><circle cx="401.639" cy="159.642" r="5"/><circle cx="385.389" cy="159.642" r="5"/></g></g></g><path d="m452.044 378.634h-392.088v-249.735c0-9.505 7.705-17.21 17.21-17.21h357.669c9.505 0 17.21 7.705 17.21 17.21v249.735z" fill="url(#SVGID_2_)"/><g><path d="m381.48 299.87-32.87-32.87h-236.76v36.41c0 2.76 2.24 5 5 5h261.09c4.46 0 6.69-5.39 3.54-8.54z" fill="#ff6c6c"/><path d="m111.85 30.25v236.75h236.76zm47.51 113.48 117.17 117.16h-117.17z" fill="#ebebff"/></g><g><g><path d="m177.21 290.55h24.52v88.08h-24.52z" fill="#d9d9ff"/><path d="m201.731 290.552h24.522v88.082h-24.522z" fill="#9494ff"/><path d="m226.25 290.55h24.52v88.08h-24.52z" fill="#d9d9ff"/><g fill="#b3b3ff"><path d="m226.25 290.55h24.52v17.86h-24.52z"/><path d="m177.21 290.55h24.52v17.86h-24.52z"/></g></g></g></g></g><g><path d="m377.943 290.552h-261.093c-2.761 0-5-2.239-5-5v-261.093c0-4.455 5.386-6.685 8.536-3.536l261.093 261.093c3.149 3.15.918 8.536-3.536 8.536zm-218.578-47.515h117.166l-117.166-117.166z" fill="#ff9d33"/></g><path d="m201.73 290.55h24.52v17.86h-24.52z" fill="#8383ff"/><g><path d="m250.775 243.143h-73.565v-77.879c0-.836.2-1.661.583-2.404l33.868-65.698c.977-1.895 3.686-1.895 4.663 0l33.868 65.698c.383.743.583 1.568.583 2.404z" fill="#ffd9d9"/><g><path d="m177.209 243.143h24.522v-66.891c0-6.771-5.489-12.261-12.261-12.261-6.771 0-12.261 5.489-12.261 12.261z" fill="#d9d9ff"/><path d="m201.731 243.143h24.522v-66.891c0-6.771-5.489-12.261-12.261-12.261-6.771 0-12.261 5.489-12.261 12.261z" fill="#9494ff"/><path d="m226.253 243.143h24.522v-66.891c0-6.771-5.489-12.261-12.261-12.261-6.771 0-12.261 5.489-12.261 12.261z" fill="#d9d9ff"/></g><path d="m232.512 128.568c-4.932 3.326-11.416 5.346-18.52 5.346-7.109 0-13.594-2.02-18.525-5.346l16.191-31.405c.981-1.894 3.688-1.894 4.664 0z" fill="#4d4dff"/></g><g fill="#ff7300"><path d="m125 110.664h-13.15v10h13.15c2.761 0 5-2.238 5-5s-2.239-5-5-5z"/><path d="m125 191.16h-13.15v10h13.15c2.761 0 5-2.238 5-5s-2.239-5-5-5z"/><path d="m125 137.496h-13.15v10h13.15c2.761 0 5-2.238 5-5s-2.239-5-5-5z"/><path d="m125 217.992h-13.15v10h13.15c2.761 0 5-2.238 5-5s-2.239-5-5-5z"/><path d="m130 249.824c0-2.762-2.239-5-5-5h-13.15v10h13.15c2.761 0 5-2.238 5-5z"/><path d="m125 164.328h-13.15v10h13.15c2.761 0 5-2.238 5-5s-2.239-5-5-5z"/><path d="m125 83.832h-13.15v10h13.15c2.761 0 5-2.238 5-5s-2.239-5-5-5z"/><path d="m125 57h-13.15v10h13.15c2.761 0 5-2.238 5-5s-2.239-5-5-5z"/></g></g><path d="m481.99 364.95v25.21c0 5.52-4.47 10-10 10h-431.98c-5.53 0-10-4.48-10-10v-25.21c0-5.52 4.47-10 10-10h136.005c1.451 0 2.831.63 3.78 1.728l12.875 14.872h126.66l12.875-14.872c.95-1.097 2.329-1.728 3.78-1.728h136.005c5.53 0 10 4.48 10 10z" fill="#d9d9ff"/></g></g></g></svg>