<svg id="Capa_1" enable-background="new 0 0 512 512" height="512" viewBox="0 0 512 512" width="512" xmlns="http://www.w3.org/2000/svg" xmlns:xlink="http://www.w3.org/1999/xlink"><linearGradient id="SVGID_1_" gradientTransform="matrix(1 0 0 -1 -561.6 -9778.99)" gradientUnits="userSpaceOnUse" x1="1068.089" x2="528.034" y1="-9890.263" y2="-10202.295"><stop offset="0" stop-color="#ffd9d9" stop-opacity="0"/><stop offset=".9981" stop-color="#ffb3b3"/></linearGradient><linearGradient id="SVGID_2_" gradientUnits="userSpaceOnUse" x1="256" x2="256" y1="374.28" y2="140.34"><stop offset="0" stop-color="#ff4d4d" stop-opacity=".4"/><stop offset="1" stop-color="#ff4d4d" stop-opacity="0"/></linearGradient><g><g><path d="m361.231 275.692c-56.758 0-102.769-46.011-102.769-102.769v-65.231c0-59.477-48.216-107.692-107.693-107.692s-107.692 48.215-107.692 107.692v86.154c0 175.712 142.442 318.154 318.153 318.154 59.477 0 107.692-48.215 107.692-107.692v-20.923c.001-59.477-48.214-107.693-107.691-107.693z" fill="url(#SVGID_1_)"/><g><g fill="#8383ff"><path d="m435.033 94.762c-2.762 0-5-2.238-5-5v-16c0-2.762 2.238-5 5-5s5 2.238 5 5v16c0 2.761-2.238 5-5 5z"/><path d="m443.033 86.762h-16c-2.762 0-5-2.238-5-5s2.238-5 5-5h16c2.762 0 5 2.238 5 5s-2.238 5-5 5z"/></g><g fill="#ff9d33"><path d="m123.96 442.18c-2.761 0-5-2.238-5-5v-16c0-2.762 2.239-5 5-5s5 2.238 5 5v16c0 2.761-2.239 5-5 5z"/><path d="m131.502 434.18h-15.085c-2.761 0-5-2.238-5-5s2.239-5 5-5h15.085c2.761 0 5 2.238 5 5s-2.238 5-5 5z"/></g><path d="m369.837 48.816c-1.279 0-2.56-.488-3.535-1.465l-4.465-4.464-4.465 4.464c-1.951 1.953-5.119 1.953-7.07 0-1.953-1.952-1.953-5.118 0-7.07l8-8c1.951-1.953 5.119-1.953 7.07 0l8 8c1.953 1.952 1.953 5.118 0 7.07-.976.977-2.256 1.465-3.535 1.465z" fill="#ff6c6c"/><path d="m348.388 454.184c-1.279 0-2.56-.488-3.535-1.465l-4.465-4.464-4.465 4.464c-1.951 1.953-5.119 1.953-7.07 0-1.953-1.952-1.953-5.118 0-7.07l8-8c1.951-1.953 5.119-1.953 7.07 0l8 8c1.953 1.952 1.953 5.118 0 7.07-.976.976-2.256 1.465-3.535 1.465z" fill="#ff6c6c"/><path d="m296.187 473.184c-1.279 0-2.56-.488-3.535-1.465l-4.465-4.464-4.465 4.464c-1.951 1.953-5.119 1.953-7.07 0-1.953-1.952-1.953-5.118 0-7.07l8-8c1.951-1.953 5.119-1.953 7.07 0l8 8c1.953 1.952 1.953 5.118 0 7.07-.976.976-2.256 1.465-3.535 1.465z" fill="#8383ff"/><path d="m397.855 113.55c-33.009-35.866-79.388-59.244-131.16-62.089l-15.324-15.326c-1.952-1.952-5.117-1.952-7.071-.001-1.953 1.953-1.953 5.119 0 7.071l8 8.001c-42.311.801-81.321 15.307-112.792 39.242l-4.904 4.015 3.204 9.794 6.058-4.562c29.975-23.345 67.379-37.58 108.017-38.482l-7.584 7.584c-1.953 1.952-1.953 5.118 0 7.07.977.977 2.256 1.465 3.536 1.465s2.559-.488 3.536-1.465l14.437-14.438c45.888 2.438 87.332 21.882 118.152 52.12l5.21 4.915 13.219.09z" fill="#2626bc"/><path d="m376.845 394.569c-.157-.443-1.291-10.667-1.434-11.116l-7.627 5.12c-29.918 23.184-67.188 37.314-107.667 38.214l7.583-7.584c1.953-1.952 1.953-5.118 0-7.07-1.951-1.953-5.119-1.953-7.07 0l-14.434 14.434c-43.394-2.305-82.809-19.82-113.03-47.287l-5.315-4.929-13.979-.071 4.865 4.998c32.651 33.125 77.152 54.536 126.56 57.253l15.332 15.332c.976.977 2.256 1.465 3.535 1.465s2.56-.488 3.535-1.464c1.953-1.953 1.953-5.119 0-7.071l-8-8.001c42.076-.796 80.893-15.141 112.272-38.838z" fill="#2626bc"/><g><g><g><g><path d="m452.04 155.34v203.94c0 8.29-6.71 15-15 15h-362.08c-8.29 0-15-6.71-15-15v-203.94c0-8.29 6.71-15 15-15h362.08c8.29 0 15 6.71 15 15z" fill="#ff6c6c"/><g fill="#ff4d4d"><path d="m141.79 140.34c-2.98 25.09-24.32 44.53-50.21 44.53-11.97 0-22.96-4.15-31.62-11.1v-18.43c0-8.29 6.71-15 15-15z"/><path d="m419 140.338v210.18c0 5.52-4.48 10-10 10h-143c-2.76 0-5.26-1.12-7.07-2.93s-2.93-4.31-2.93-7.07c0 5.52-4.48 10-10 10h-143c-5.52 0-10-4.48-10-10v-210.18z"/></g></g><g><path d="m256 143.55v189.42c0 5.52-4.48 10-10 10h-143c-5.52 0-10-4.48-10-10v-204.42c0-5.52 4.48-10 10-10h128c13.81 0 25 11.19 25 25z" fill="#fff"/><path d="m142.16 134.28c0 27.47-21.88 49.82-49.16 50.57v-56.3c0-5.52 4.48-10 10-10h36.66c1.62 4.95 2.5 10.24 2.5 15.73z" fill="#ebebff"/><path d="m266 342.968h142.999c5.523 0 10-4.477 10-10v-204.418c0-5.523-4.477-10-10-10h-127.999c-13.807 0-25 11.193-25 25v189.418c0 5.523 4.477 10 10 10z" fill="#fff"/></g><g><g><g><g><g><path d="m325.946 196.871h-43.52c-2.762 0-5-2.239-5-5s2.238-5 5-5h43.52c2.762 0 5 2.239 5 5s-2.238 5-5 5z" fill="#ff6c6c"/></g><g><path d="m325.946 216.373h-43.52c-2.762 0-5-2.239-5-5s2.238-5 5-5h43.52c2.762 0 5 2.239 5 5s-2.238 5-5 5z" fill="#ff6c6c"/></g><g><path d="m325.946 235.876h-43.52c-2.762 0-5-2.239-5-5s2.238-5 5-5h43.52c2.762 0 5 2.239 5 5s-2.238 5-5 5z" fill="#ff6c6c"/></g></g><g><g><path d="m388.907 196.871h-43.52c-2.762 0-5-2.239-5-5s2.238-5 5-5h43.52c2.762 0 5 2.239 5 5s-2.238 5-5 5z" fill="#ff6c6c"/></g><g><path d="m388.907 216.373h-43.52c-2.762 0-5-2.239-5-5s2.238-5 5-5h43.52c2.762 0 5 2.239 5 5s-2.238 5-5 5z" fill="#ff6c6c"/></g><g><path d="m388.907 235.876h-43.52c-2.762 0-5-2.239-5-5s2.238-5 5-5h43.52c2.762 0 5 2.239 5 5s-2.238 5-5 5z" fill="#ff6c6c"/></g></g></g><g><g><g><path d="m325.946 255.379h-43.52c-2.762 0-5-2.239-5-5s2.238-5 5-5h43.52c2.762 0 5 2.239 5 5s-2.238 5-5 5z" fill="#ff6c6c"/></g><g><path d="m325.946 274.881h-43.52c-2.762 0-5-2.239-5-5s2.238-5 5-5h43.52c2.762 0 5 2.239 5 5s-2.238 5-5 5z" fill="#ff6c6c"/></g><g><path d="m325.946 294.384h-43.52c-2.762 0-5-2.239-5-5s2.238-5 5-5h43.52c2.762 0 5 2.239 5 5s-2.238 5-5 5z" fill="#ff6c6c"/></g><g><path d="m325.946 313.887h-43.52c-2.762 0-5-2.239-5-5s2.238-5 5-5h43.52c2.762 0 5 2.239 5 5s-2.238 5-5 5z" fill="#ff6c6c"/></g></g><g><g><path d="m388.907 255.379h-43.52c-2.762 0-5-2.239-5-5s2.238-5 5-5h43.52c2.762 0 5 2.239 5 5s-2.238 5-5 5z" fill="#ff6c6c"/></g><g><path d="m388.907 274.881h-43.52c-2.762 0-5-2.239-5-5s2.238-5 5-5h43.52c2.762 0 5 2.239 5 5s-2.238 5-5 5z" fill="#ff6c6c"/></g><g><path d="m388.907 294.384h-43.52c-2.762 0-5-2.239-5-5s2.238-5 5-5h43.52c2.762 0 5 2.239 5 5s-2.238 5-5 5z" fill="#ff6c6c"/></g><g><path d="m388.907 313.887h-43.52c-2.762 0-5-2.239-5-5s2.238-5 5-5h43.52c2.762 0 5 2.239 5 5s-2.238 5-5 5z" fill="#ff6c6c"/></g></g></g></g><g><g><g><g><path d="m171.61 152.87c0 2.76-2.24 5-5 5h-43.52c-2.76 0-5-2.24-5-5 0-2.77 2.24-5 5-5h43.52c2.76 0 5 2.23 5 5z" fill="#ff6c6c"/></g><g><path d="m171.61 172.37c0 2.76-2.24 5-5 5h-43.52c-1.22 0-2.33-.44-3.2-1.17-1.1-.91-1.8-2.29-1.8-3.83 0-2.76 2.24-5 5-5h43.52c2.76 0 5 2.24 5 5z" fill="#ff6c6c"/></g><path d="m123.09 167.37h6.74c-2.9 3.37-6.25 6.34-9.94 8.83-1.1-.91-1.8-2.29-1.8-3.83 0-2.76 2.24-5 5-5z" fill="#ff4d4d"/><path d="m140.31 147.87c-.97 3.5-2.31 6.85-3.98 10h-13.24c-2.76 0-5-2.24-5-5 0-2.77 2.24-5 5-5z" fill="#ff4d4d"/><g><path d="m166.613 196.871h-43.52c-2.762 0-5-2.239-5-5s2.238-5 5-5h43.52c2.762 0 5 2.239 5 5s-2.239 5-5 5z" fill="#ff6c6c"/></g><g><path d="m166.613 216.373h-43.52c-2.762 0-5-2.239-5-5s2.238-5 5-5h43.52c2.762 0 5 2.239 5 5s-2.239 5-5 5z" fill="#ff6c6c"/></g><g><path d="m166.613 235.876h-43.52c-2.762 0-5-2.239-5-5s2.238-5 5-5h43.52c2.762 0 5 2.239 5 5s-2.239 5-5 5z" fill="#ff6c6c"/></g></g><g><g><path d="m229.573 157.865h-43.52c-2.762 0-5-2.239-5-5s2.238-5 5-5h43.52c2.762 0 5 2.239 5 5s-2.238 5-5 5z" fill="#ff6c6c"/></g><g><path d="m229.573 177.368h-43.52c-2.762 0-5-2.239-5-5s2.238-5 5-5h43.52c2.762 0 5 2.239 5 5s-2.238 5-5 5z" fill="#ff6c6c"/></g><g><path d="m229.573 196.871h-43.52c-2.762 0-5-2.239-5-5s2.238-5 5-5h43.52c2.762 0 5 2.239 5 5s-2.238 5-5 5z" fill="#ff6c6c"/></g><g><path d="m229.573 216.373h-43.52c-2.762 0-5-2.239-5-5s2.238-5 5-5h43.52c2.762 0 5 2.239 5 5s-2.238 5-5 5z" fill="#ff6c6c"/></g><g><path d="m229.573 235.876h-43.52c-2.762 0-5-2.239-5-5s2.238-5 5-5h43.52c2.762 0 5 2.239 5 5s-2.238 5-5 5z" fill="#ff6c6c"/></g></g></g><g><g><g><path d="m166.613 294.384h-43.52c-2.762 0-5-2.239-5-5s2.238-5 5-5h43.52c2.762 0 5 2.239 5 5s-2.239 5-5 5z" fill="#ff6c6c"/></g><g><path d="m166.613 313.887h-43.52c-2.762 0-5-2.239-5-5s2.238-5 5-5h43.52c2.762 0 5 2.239 5 5s-2.239 5-5 5z" fill="#ff6c6c"/></g></g><g><g><path d="m229.573 294.384h-43.52c-2.762 0-5-2.239-5-5s2.238-5 5-5h43.52c2.762 0 5 2.239 5 5s-2.238 5-5 5z" fill="#ff6c6c"/></g><g><path d="m229.573 313.887h-43.52c-2.762 0-5-2.239-5-5s2.238-5 5-5h43.52c2.762 0 5 2.239 5 5s-2.238 5-5 5z" fill="#ff6c6c"/></g></g></g></g></g></g></g></g><path d="m230.073 273.548h-106.48c-2.761 0-5-2.239-5-5v-17.381c0-2.761 2.239-5 5-5h106.48c2.761 0 5 2.239 5 5v17.381c0 2.761-2.238 5-5 5z" fill="#8383ff"/><path d="m388.907 175.246h-106.48c-2.761 0-5-2.239-5-5v-17.381c0-2.761 2.239-5 5-5h106.48c2.761 0 5 2.239 5 5v17.381c0 2.762-2.239 5-5 5z" fill="#ff9d33"/><path d="m452.04 155.34v203.94c0 8.29-6.71 15-15 15h-362.08c-8.29 0-15-6.71-15-15v-203.94c0-8.29 6.71-15 15-15h362.08c8.29 0 15 6.71 15 15z" fill="url(#SVGID_2_)"/><g><path d="m243.4 342.968v54.81c0 4.02-4.5 6.39-7.82 4.13l-13.31-9.07-13.31 9.07c-3.32 2.26-7.82-.11-7.82-4.13v-54.81z" fill="#ffc599"/><path d="m201.14 342.97h42.26v17.548h-42.26z" fill="#ff9d33"/></g><g><g><circle cx="91.581" cy="118.55" fill="#8383ff" r="50.582"/><path d="m108.194 112.743c0-9.161-7.453-16.613-16.613-16.613s-16.613 7.453-16.613 16.613c0 4.518 1.818 8.615 4.755 11.613-2.936 2.998-4.755 7.095-4.755 11.613 0 2.761 2.238 5 5 5s5-2.239 5-5c0-3.646 2.967-6.613 6.613-6.613s6.613 2.967 6.613 6.613c0 2.761 2.238 5 5 5s5-2.239 5-5c0-4.518-1.818-8.615-4.755-11.613 2.937-2.997 4.755-7.095 4.755-11.613zm-16.613-6.613c3.646 0 6.613 2.967 6.613 6.613s-2.967 6.613-6.613 6.613-6.613-2.967-6.613-6.613 2.966-6.613 6.613-6.613z" fill="#fff"/></g><g><ellipse cx="420.419" cy="370.758" fill="#ff9d33" rx="50.582" ry="50.582" transform="matrix(.16 -.987 .987 .16 -12.895 726.36)"/><path d="m437.033 364.951c0-9.161-7.453-16.613-16.613-16.613s-16.613 7.453-16.613 16.613c0 4.518 1.818 8.615 4.755 11.613-2.936 2.998-4.755 7.095-4.755 11.613 0 2.761 2.238 5 5 5s5-2.239 5-5c0-3.646 2.967-6.613 6.613-6.613s6.613 2.967 6.613 6.613c0 2.761 2.238 5 5 5s5-2.239 5-5c0-4.518-1.818-8.615-4.755-11.613 2.936-2.998 4.755-7.095 4.755-11.613zm-16.614-6.613c3.646 0 6.613 2.967 6.613 6.613s-2.967 6.613-6.613 6.613-6.613-2.967-6.613-6.613 2.967-6.613 6.613-6.613z" fill="#fff"/></g></g></g></g></g></svg>