<!DOCTYPE svg PUBLIC "-//W3C//DTD SVG 20010904//EN" "http://www.w3.org/TR/2001/REC-SVG-20010904/DTD/svg10.dtd">
<svg version="1.0" xmlns="http://www.w3.org/2000/svg" width="1200px" height="1200px" viewBox="0 0 12000 12000" preserveAspectRatio="xMidYMid meet">
<g id="layer101" fill="#003c71" stroke="none">
<path d="M0 6000 l0 -6000 6000 0 6000 0 0 6000 0 6000 -6000 0 -6000 0 0 -6000z"/>
</g>
<g id="layer102" fill="#113869" stroke="none">
<path d="M0 6000 l0 -6000 6000 0 6000 0 0 6000 0 6000 -6000 0 -6000 0 0 -6000z m8670 55 c58 -7 137 -24 175 -35 274 -86 519 -294 638 -543 80 -167 106 -284 106 -472 0 -192 -27 -310 -110 -478 -98 -200 -272 -372 -482 -475 -176 -87 -397 -126 -574 -103 -327 44 -576 193 -765 456 -43 60 -98 171 -127 254 -43 124 -55 201 -54 351 0 125 3 160 27 250 57 221 183 421 351 559 169 138 326 207 540 236 120 17 152 17 275 0z m-5937 -182 c-13 -2 -33 -2 -45 0 -13 2 -3 4 22 4 25 0 35 -2 23 -4z m1980 0 c-7 -2 -21 -2 -30 0 -10 3 -4 5 12 5 17 0 24 -2 18 -5z m130 0 c-7 -2 -21 -2 -30 0 -10 3 -4 5 12 5 17 0 24 -2 18 -5z m1840 0 c-7 -2 -21 -2 -30 0 -10 3 -4 5 12 5 17 0 24 -2 18 -5z m64 0 c-4 -3 -10 -3 -14 0 -3 4 0 7 7 7 7 0 10 -3 7 -7z m91 0 c-10 -2 -28 -2 -40 0 -13 2 -5 4 17 4 22 1 32 -1 23 -4z m-4350 -20 c-10 -2 -26 -2 -35 0 -10 3 -2 5 17 5 19 0 27 -2 18 -5z m429 0 c-4 -3 -10 -3 -14 0 -3 4 0 7 7 7 7 0 10 -3 7 -7z m1650 0 c-4 -3 -10 -3 -14 0 -3 4 0 7 7 7 7 0 10 -3 7 -7z m400 0 c-4 -3 -10 -3 -14 0 -3 4 0 7 7 7 7 0 10 -3 7 -7z m1580 1 c-3 -3 -12 -4 -19 -1 -8 3 -5 6 6 6 11 1 17 -2 13 -5z m420 -1 c-4 -3 -10 -3 -14 0 -3 4 0 7 7 7 7 0 10 -3 7 -7z m4151 0 c-10 -2 -26 -2 -35 0 -10 3 -2 5 17 5 19 0 27 -2 18 -5z m-8621 -220 c-4 -3 -10 -3 -14 0 -3 4 0 7 7 7 7 0 10 -3 7 -7z m-47 -7 c0 -3 -5 -8 -12 -12 -7 -4 -8 -3 -4 4 7 12 16 16 16 8z m-23 -978 c-1 -178 -2 -35 -2 317 0 352 1 497 2 323 2 -174 2 -462 0 -640z m3030 645 c-3 -10 -5 -2 -5 17 0 19 2 27 5 18 2 -10 2 -26 0 -35z m4770 -100 c-4 -3 -10 -3 -14 0 -3 4 0 7 7 7 7 0 10 -3 7 -7z m-9360 -130 c-4 -3 -7 0 -7 7 0 7 3 10 7 7 3 -4 3 -10 0 -14z m506 -10 c-90 -2 -236 -2 -325 0 -90 1 -17 3 162 3 179 0 252 -2 163 -3z m4784 -115 c-2 -24 -4 -7 -4 37 0 44 2 63 4 43 2 -21 2 -57 0 -80z m-2510 -15 c-2 -16 -4 -3 -4 27 0 30 2 43 4 28 2 -16 2 -40 0 -55z m6816 50 c-45 -2 -122 -2 -170 0 -48 1 -11 3 82 3 94 0 133 -2 88 -3z m-8826 -50 c-4 -3 -7 0 -7 7 0 7 3 10 7 7 3 -4 3 -10 0 -14z m8550 -390 c-1 -76 -3 -14 -3 137 0 151 2 213 3 138 2 -76 2 -200 0 -275z m-9320 280 c-4 -3 -7 0 -7 7 0 7 3 10 7 7 3 -4 3 -10 0 -14z m5300 0 c-4 -3 -7 0 -7 7 0 7 3 10 7 7 3 -4 3 -10 0 -14z m5030 -215 c-2 -18 -4 -6 -4 27 0 33 2 48 4 33 2 -15 2 -42 0 -60z m-20 -135 c-4 -3 -7 0 -7 7 0 7 3 10 7 7 3 -4 3 -10 0 -14z m-8549 -180 c-10 -2 -28 -2 -40 0 -13 2 -5 4 17 4 22 1 32 -1 23 -4z m155 0 c-7 -2 -21 -2 -30 0 -10 3 -4 5 12 5 17 0 24 -2 18 -5z m3894 1 c-3 -3 -12 -4 -19 -1 -8 3 -5 6 6 6 11 1 17 -2 13 -5z m190 0 c-3 -3 -12 -4 -19 -1 -8 3 -5 6 6 6 11 1 17 -2 13 -5z m3531 -1 c-10 -2 -26 -2 -35 0 -10 3 -2 5 17 5 19 0 27 -2 18 -5z m150 0 c-10 -2 -28 -2 -40 0 -13 2 -5 4 17 4 22 1 32 -1 23 -4z m-5091 -110 c-4 -3 -7 0 -7 7 0 7 3 10 7 7 3 -4 3 -10 0 -14z"/>
<path d="M7828 5633 c-9 -2 -19 -10 -22 -18 -3 -10 0 -12 12 -9 15 5 15 4 2 -5 -13 -10 -13 -12 0 -21 11 -7 11 -10 2 -10 -7 0 -10 -5 -6 -12 4 -7 3 -8 -4 -4 -7 4 -12 13 -12 21 0 22 -16 26 -17 4 -1 -10 2 -19 8 -19 5 0 9 -13 9 -29 0 -17 5 -33 10 -36 6 -3 10 -14 10 -24 0 -10 9 -26 20 -36 21 -19 18 -37 -5 -28 -21 7 -20 -53 0 -73 8 -9 15 -25 15 -37 0 -12 17 -40 39 -62 29 -31 36 -45 30 -60 -5 -13 -8 -15 -9 -5 0 12 -3 11 -11 -4 -14 -24 -17 -86 -4 -86 5 0 27 -16 47 -35 20 -19 42 -35 48 -35 6 0 10 -6 7 -12 -2 -7 -9 -12 -14 -11 -18 4 12 -66 43 -100 34 -36 52 -70 58 -107 2 -14 9 -24 15 -23 6 2 11 -6 11 -17 0 -11 4 -28 9 -38 15 -28 33 -121 26 -132 -3 -5 1 -10 9 -10 9 0 16 -6 16 -14 0 -26 21 -28 41 -5 15 18 19 19 19 6 0 -10 -5 -17 -11 -17 -5 0 -7 -5 -3 -12 4 -7 3 -8 -4 -4 -8 5 -12 -3 -12 -23 0 -16 5 -33 10 -36 6 -3 10 -17 10 -30 0 -13 5 -27 10 -30 6 -3 10 -13 10 -22 0 -21 33 -92 43 -93 4 0 7 5 7 12 0 6 3 9 6 6 3 -4 1 -16 -6 -27 -8 -17 -8 -21 4 -21 8 0 16 -5 18 -12 6 -16 169 -17 186 -1 17 16 15 23 -5 23 -15 0 -15 1 1 13 21 15 43 15 70 0 16 -9 16 -11 2 -16 -9 -4 -16 -12 -16 -19 0 -10 25 -13 100 -13 55 0 100 2 100 5 0 3 13 21 30 39 25 30 57 105 64 149 1 7 8 18 14 24 7 7 12 22 12 35 0 13 4 23 9 23 5 0 11 14 15 30 4 21 11 30 26 30 21 0 60 -32 60 -50 0 -5 7 -7 15 -4 22 9 18 35 -5 41 -30 8 -24 21 6 15 25 -5 26 -3 22 31 -2 20 0 33 4 31 4 -3 8 -18 8 -35 0 -38 16 -38 22 1 3 18 0 31 -9 34 -7 3 -13 10 -13 17 0 6 7 9 15 5 26 -10 44 5 70 55 23 46 23 49 5 49 -10 0 -21 4 -24 9 -3 4 6 6 19 3 17 -3 25 0 25 9 0 11 2 11 10 -1 15 -23 29 5 25 49 -5 58 -63 147 -116 180 -22 14 -24 18 -13 29 11 10 14 10 14 0 1 -19 40 34 40 53 0 9 7 22 15 29 8 7 15 22 15 34 0 12 5 27 11 33 8 8 9 20 1 41 -9 27 -8 29 9 25 11 -3 20 0 21 8 0 8 2 19 2 25 1 6 6 18 12 25 6 8 17 32 24 54 7 22 16 48 21 57 5 10 9 29 9 43 0 14 4 25 9 25 5 0 12 10 16 23 3 12 11 32 17 44 13 27 2 66 -12 43 -6 -9 -10 -10 -10 -3 0 6 -8 14 -17 16 -16 4 -16 5 1 6 15 1 16 4 7 15 -9 11 -20 12 -49 4 -34 -9 -102 -18 -237 -33 -81 -9 -95 -14 -95 -34 0 -25 -11 -33 -27 -20 -10 9 -13 7 -13 -9 0 -12 -8 -26 -17 -32 -16 -11 -16 -11 1 -5 18 5 19 4 4 -12 -8 -10 -19 -38 -23 -63 -3 -25 -9 -60 -12 -78 -3 -19 -11 -36 -17 -38 -7 -3 -10 -20 -8 -44 3 -27 -1 -44 -13 -56 -10 -10 -15 -29 -13 -48 3 -33 7 -32 -67 -19 -16 2 -45 11 -64 20 -18 8 -44 13 -58 10 -15 -3 -27 1 -30 9 -3 8 -19 14 -38 14 -19 0 -37 5 -40 10 -3 6 -23 10 -44 10 -23 0 -44 6 -52 16 -8 10 -23 14 -41 12 -32 -5 -39 11 -8 19 24 6 27 41 5 69 -8 10 -15 28 -15 38 0 11 -4 33 -10 50 -5 17 -12 47 -15 66 -3 20 -20 52 -38 73 -31 36 -34 37 -99 37 -37 0 -70 5 -73 10 -3 6 -37 10 -74 10 -37 0 -71 4 -76 9 -14 12 -47 19 -67 14z m69 -40 c-4 -3 -10 -3 -14 0 -3 4 0 7 7 7 7 0 10 -3 7 -7z m1290 0 c-4 -3 -10 -3 -14 0 -3 4 0 7 7 7 7 0 10 -3 7 -7z m-310 -80 c-4 -3 -7 0 -7 7 0 7 3 10 7 7 3 -4 3 -10 0 -14z m91 10 c-16 -2 -40 -2 -55 0 -16 2 -3 4 27 4 30 0 43 -2 28 -4z m-103 -64 c0 -15 -4 -31 -9 -36 -5 -4 -6 -3 -3 4 4 6 3 22 -2 35 -6 17 -6 25 2 25 7 0 12 -13 12 -28z m-618 -56 c-4 -3 -7 0 -7 7 0 7 3 10 7 7 3 -4 3 -10 0 -14z m570 -30 c-4 -3 -7 0 -7 7 0 7 3 10 7 7 3 -4 3 -10 0 -14z m-947 -33 c0 -5 -5 -10 -11 -10 -5 0 -7 5 -4 10 3 6 8 10 11 10 2 0 4 -4 4 -10z m927 -57 c-4 -3 -7 0 -7 7 0 7 3 10 7 7 3 -4 3 -10 0 -14z m23 -57 c0 -2 -8 -10 -17 -17 -16 -13 -17 -12 -4 4 13 16 21 21 21 13z m-36 -32 c3 -8 2 -12 -4 -9 -6 3 -10 1 -10 -6 0 -7 -2 -10 -5 -7 -5 5 4 38 10 38 2 0 6 -7 9 -16z m-437 -1 c-4 -3 -10 -3 -14 0 -3 4 0 7 7 7 7 0 10 -3 7 -7z m80 -20 c-4 -3 -10 -3 -14 0 -3 4 0 7 7 7 7 0 10 -3 7 -7z m330 -50 c-4 -3 -7 0 -7 7 0 7 3 10 7 7 3 -4 3 -10 0 -14z m-140 0 c-4 -3 -10 -3 -14 0 -3 4 0 7 7 7 7 0 10 -3 7 -7z m-613 -159 c3 -8 2 -12 -4 -9 -6 3 -10 10 -10 16 0 14 7 11 14 -7z m96 -54 c0 -5 -2 -10 -4 -10 -3 0 -8 5 -11 10 -3 6 -1 10 4 10 6 0 11 -4 11 -10z m1015 0 c3 -5 4 -10 1 -10 -3 0 -8 5 -11 10 -3 6 -4 10 -1 10 3 0 8 -4 11 -10z m-998 -77 c-3 -10 -5 -2 -5 17 0 19 2 27 5 18 2 -10 2 -26 0 -35z m13 -48 c0 -8 -4 -15 -10 -15 -5 0 -7 7 -4 15 4 8 8 15 10 15 2 0 4 -7 4 -15z m327 -22 c-4 -3 -10 -3 -14 0 -3 4 0 7 7 7 7 0 10 -3 7 -7z m130 -30 c-4 -3 -10 -3 -14 0 -3 4 0 7 7 7 7 0 10 -3 7 -7z m-51 -24 c7 -5 16 -9 20 -8 5 1 19 1 32 0 27 -1 30 -37 5 -57 -10 -7 -13 -14 -8 -14 15 0 6 -70 -9 -76 -7 -3 -10 -19 -8 -41 3 -23 0 -40 -9 -47 -8 -6 -14 -17 -15 -23 -1 -7 -2 -25 -2 -39 -3 -36 -19 -21 -25 23 -9 67 -27 137 -37 147 -6 6 -10 27 -10 47 0 21 -4 41 -10 44 -5 3 -10 20 -10 37 0 30 1 30 38 23 20 -4 42 -11 48 -16z m91 -106 c-4 -3 -7 0 -7 7 0 7 3 10 7 7 3 -4 3 -10 0 -14z m-170 -40 c-4 -3 -7 0 -7 7 0 7 3 10 7 7 3 -4 3 -10 0 -14z m150 -30 c-4 -3 -7 0 -7 7 0 7 3 10 7 7 3 -4 3 -10 0 -14z m250 -30 c-4 -3 -7 0 -7 7 0 7 3 10 7 7 3 -4 3 -10 0 -14z m-370 -70 c-4 -3 -7 0 -7 7 0 7 3 10 7 7 3 -4 3 -10 0 -14z m20 -70 c-4 -3 -7 0 -7 7 0 7 3 10 7 7 3 -4 3 -10 0 -14z m50 -30 c-4 -3 -7 0 -7 7 0 7 3 10 7 7 3 -4 3 -10 0 -14z m193 -63 c0 -6 -33 -9 -82 -8 l-83 2 80 6 c44 3 81 7 83 8 1 1 2 -2 2 -8z m-307 -7 c-18 -2 -48 -2 -65 0 -18 2 -4 4 32 4 36 0 50 -2 33 -4z"/>
</g>
<g id="layer103" fill="#3a5275" stroke="none">
<path d="M0 6000 l0 -6000 6000 0 6000 0 0 6000 0 6000 -6000 0 -6000 0 0 -6000z m8670 55 c58 -7 137 -24 175 -35 274 -86 519 -294 638 -543 80 -167 106 -284 106 -472 0 -192 -27 -310 -110 -478 -98 -200 -272 -372 -482 -475 -176 -87 -397 -126 -574 -103 -327 44 -576 193 -765 456 -43 60 -98 171 -127 254 -43 124 -55 201 -54 351 0 125 3 160 27 250 57 221 183 421 351 559 169 138 326 207 540 236 120 17 152 17 275 0z m-5681 -195 c284 -61 474 -208 587 -455 27 -58 31 -71 62 -200 21 -89 23 -390 4 -480 -108 -491 -490 -722 -1121 -675 -144 10 -275 36 -330 65 -65 33 -61 -18 -61 834 0 750 1 775 20 805 43 70 165 111 375 126 154 11 361 2 464 -20z m2036 0 c252 -80 401 -250 444 -511 7 -42 11 -263 11 -625 -1 -619 0 -611 -65 -644 -36 -18 -186 -20 -227 -2 l-28 12 0 607 c0 410 -4 621 -11 648 -56 205 -225 310 -457 283 -135 -16 -255 -105 -304 -226 -23 -57 -23 -59 -28 -659 -5 -587 -5 -602 -26 -629 -11 -15 -36 -33 -55 -40 -72 -26 -229 -9 -229 25 0 9 -1 294 -1 634 0 542 2 626 17 684 55 221 231 394 454 447 104 24 107 25 275 21 130 -3 173 -7 230 -25z m1900 20 c241 -39 384 -147 354 -267 -11 -41 -58 -103 -80 -103 -7 0 -51 20 -98 44 -115 59 -197 78 -335 77 -198 0 -342 -60 -451 -188 -71 -83 -131 -244 -136 -365 -2 -32 -2 -31 -8 7 -3 22 -6 -27 -6 -110 0 -82 2 -134 5 -115 5 30 7 25 14 -34 21 -181 114 -346 244 -433 87 -57 171 -83 287 -90 145 -8 218 7 352 73 124 61 132 61 173 4 72 -101 -1 -220 -175 -286 -86 -32 -162 -45 -295 -50 -124 -5 -160 -3 -249 16 -285 58 -496 239 -602 513 -35 92 -46 140 -60 262 -19 169 8 418 58 535 31 73 39 87 85 161 118 187 337 322 573 352 57 7 300 6 350 -3z m4263 -27 c40 -21 82 -74 82 -104 0 -19 -76 -122 -298 -404 -73 -93 -138 -169 -143 -167 -5 1 -9 -5 -9 -15 0 -9 3 -13 6 -10 16 16 171 -79 234 -143 116 -115 156 -232 148 -423 -6 -119 -26 -191 -76 -272 -127 -207 -413 -297 -841 -265 -214 15 -336 49 -380 106 -21 27 -21 31 -21 821 0 857 -2 830 52 865 13 9 43 19 67 23 48 8 159 -1 181 -15 13 -8 16 -62 20 -322 l5 -313 156 -3 c141 -2 157 -1 172 16 9 10 73 99 141 198 283 409 289 416 361 442 39 15 96 9 143 -15z m-9503 -7 c42 -18 65 -61 65 -124 0 -39 -12 -98 -23 -114 -1 -1 -191 -5 -422 -8 l-420 -5 0 -260 0 -260 352 -5 353 -5 27 -28 c26 -25 28 -34 28 -101 0 -123 27 -115 -399 -118 l-361 -3 -3 -237 -2 -238 377 0 c423 0 430 -1 466 -70 22 -42 18 -127 -8 -166 l-15 -24 -499 0 c-535 0 -540 0 -588 52 -12 12 -26 36 -32 51 -8 19 -11 274 -11 789 0 833 -2 804 59 847 54 38 77 39 554 40 383 1 474 -2 502 -13z"/>
<path d="M7810 5591 c0 -5 6 -12 13 -14 9 -4 9 -6 0 -6 -14 -1 5 -62 34 -112 24 -41 117 -112 189 -145 82 -37 216 -76 227 -65 4 4 5 21 1 37 l-8 29 -8 -25 c-6 -18 -7 -15 -3 15 2 22 -4 71 -15 110 -10 39 -19 63 -20 55 -1 -8 -6 -4 -11 9 -5 14 -7 31 -4 38 3 9 0 11 -7 7 -7 -5 -9 -2 -5 9 5 13 -4 17 -48 22 -29 4 -66 4 -81 1 -16 -3 -45 -2 -64 3 -19 5 -28 10 -20 11 19 3 -107 29 -142 29 -16 1 -28 -3 -28 -8z"/>
<path d="M9140 5587 c-30 -6 -57 -14 -60 -18 -9 -12 -81 -29 -74 -17 10 16 -127 2 -141 -14 -17 -18 -89 -324 -81 -343 3 -9 2 -14 -3 -11 -11 7 -21 -17 -21 -49 0 -22 10 -27 96 -55 53 -17 109 -37 125 -45 42 -22 65 -19 77 13 14 34 55 143 86 224 13 35 41 108 62 163 21 55 41 104 46 110 4 5 8 19 8 32 0 20 -5 23 -32 22 -18 -1 -58 -6 -88 -12z m97 -14 c-4 -3 -10 -3 -14 0 -3 4 0 7 7 7 7 0 10 -3 7 -7z m-69 -10 c-16 -2 -40 -2 -55 0 -16 2 -3 4 27 4 30 0 43 -2 28 -4z m-291 -50 c-4 -3 -7 0 -7 7 0 7 3 10 7 7 3 -4 3 -10 0 -14z m91 10 c-16 -2 -40 -2 -55 0 -16 2 -3 4 27 4 30 0 43 -2 28 -4z m-103 -62 c0 -16 -2 -32 -5 -35 -5 -4 -6 36 -2 57 4 16 7 5 7 -22z m-45 -235 c0 -2 -8 -10 -17 -17 -16 -13 -17 -12 -4 4 13 16 21 21 21 13z"/>
<path d="M7847 5402 c-8 -11 4 -62 13 -57 4 3 8 -6 8 -19 0 -54 87 -133 204 -185 69 -31 156 -56 353 -101 443 -103 585 -155 646 -236 19 -25 41 -44 52 -44 17 0 19 6 15 55 -6 72 -46 130 -113 167 -65 36 -281 108 -323 108 -17 0 -32 3 -32 8 0 9 -121 44 -146 42 -33 -4 -61 1 -45 7 8 3 -37 19 -100 35 -284 71 -397 116 -464 189 -34 37 -58 48 -68 31z"/>
<path d="M7920 5150 c0 -30 7 -48 31 -75 62 -70 180 -113 514 -189 377 -86 488 -125 539 -189 15 -17 31 -38 37 -45 15 -18 33 -10 37 18 7 44 -9 89 -46 128 -68 72 -140 98 -527 192 -367 89 -473 124 -534 179 -37 32 -51 27 -51 -19z"/>
<path d="M9570 5080 c0 -7 3 -10 7 -7 3 4 3 10 0 14 -4 3 -7 0 -7 -7z"/>
<path d="M7997 4994 c-10 -11 15 -58 48 -89 17 -16 40 -52 50 -78 12 -32 21 -44 26 -35 5 7 7 1 7 -17 -1 -25 65 -220 79 -235 2 -2 8 2 13 10 8 13 10 12 10 -2 0 -10 -4 -18 -10 -18 -9 0 3 -43 44 -145 14 -33 27 -69 31 -80 l7 -20 8 20 c8 18 9 17 9 -7 l1 -28 89 0 c61 0 92 4 100 13 13 16 -13 133 -36 159 -8 9 -12 25 -9 35 3 10 -3 52 -13 93 -11 43 -20 64 -21 50 -2 -23 -3 -23 -9 5 -4 17 -6 45 -3 63 3 17 0 32 -5 32 -6 0 -10 14 -11 30 -1 25 3 30 16 26 52 -16 119 -26 138 -22 14 4 24 1 27 -8 3 -8 18 -16 34 -18 26 -3 28 -6 29 -53 0 -27 -5 -57 -11 -65 -18 -21 -47 -144 -39 -164 3 -9 2 -16 -3 -16 -13 0 -47 -126 -39 -145 4 -12 24 -15 96 -15 53 0 90 4 90 10 0 5 5 9 11 7 5 -1 23 30 39 68 58 143 100 253 100 264 0 22 29 10 61 -24 41 -43 69 -46 69 -7 0 36 -30 83 -74 117 -52 40 -231 96 -486 154 -236 53 -350 87 -404 121 -35 21 -48 24 -59 14z m103 -84 c0 -5 -2 -10 -4 -10 -3 0 -8 5 -11 10 -3 6 -1 10 4 10 6 0 11 -4 11 -10z m17 -77 c-3 -10 -5 -2 -5 17 0 19 2 27 5 18 2 -10 2 -26 0 -35z m561 -108 c-3 -3 -9 2 -12 12 -6 14 -5 15 5 6 7 -7 10 -15 7 -18z m2 -29 c0 -3 -5 -8 -12 -12 -7 -4 -8 -3 -4 4 7 12 16 16 16 8z m-380 -296 c0 -5 -2 -10 -4 -10 -3 0 -8 5 -11 10 -3 6 -1 10 4 10 6 0 11 -4 11 -10z m10 -46 c0 -14 -4 -23 -9 -20 -5 3 -7 15 -4 26 7 28 13 25 13 -6z"/>
<path d="M9570 4930 c0 -7 3 -10 7 -7 3 4 3 10 0 14 -4 3 -7 0 -7 -7z"/>
<path d="M2418 5853 c7 -3 16 -2 19 1 4 3 -2 6 -13 5 -11 0 -14 -3 -6 -6z"/>
<path d="M2923 5853 c4 -3 10 -3 14 0 3 4 0 7 -7 7 -7 0 -10 -3 -7 -7z"/>
<path d="M2535 5624 c-16 -2 -46 -8 -65 -14 l-35 -9 3 -636 2 -636 28 -11 c16 -6 99 -11 202 -11 149 0 185 3 243 21 212 65 345 202 403 412 25 92 25 347 0 444 -28 108 -47 152 -98 222 -69 97 -169 164 -294 199 -57 16 -319 29 -389 19z"/>
<path d="M2663 4283 c15 -2 39 -2 55 0 15 2 2 4 -28 4 -30 0 -43 -2 -27 -4z"/>
<path d="M2638 4053 c23 -2 61 -2 85 0 23 2 4 4 -43 4 -47 0 -66 -2 -42 -4z"/>
<path d="M6718 4283 c23 -2 61 -2 85 0 23 2 4 4 -43 4 -47 0 -66 -2 -42 -4z"/>
<path d="M6678 4053 c29 -2 74 -2 100 0 26 2 2 3 -53 3 -55 0 -76 -1 -47 -3z"/>
<path d="M10048 5853 c12 -2 32 -2 45 0 12 2 2 4 -23 4 -25 0 -35 -2 -22 -4z"/>
<path d="M10194 5500 c0 -162 2 -229 3 -147 2 81 2 213 0 295 -1 81 -3 14 -3 -148z"/>
<path d="M10303 5193 c43 -2 110 -2 150 0 40 1 5 3 -78 3 -82 0 -115 -2 -72 -3z"/>
<path d="M10195 4640 c0 -176 2 -315 4 -309 2 8 6 7 11 -2 5 -8 51 -16 131 -22 287 -22 465 39 530 185 35 77 34 201 -2 279 -38 82 -121 142 -229 169 -68 16 -391 25 -417 12 -14 -8 -23 -8 -25 -2 -2 5 -3 -134 -3 -310z"/>
<path d="M10428 4283 c12 -2 32 -2 45 0 12 2 2 4 -23 4 -25 0 -35 -2 -22 -4z"/>
<path d="M10408 4053 c23 -2 61 -2 85 0 23 2 4 4 -43 4 -47 0 -66 -2 -42 -4z"/>
<path d="M864 5335 c0 -143 2 -200 3 -127 2 73 2 190 0 260 -1 70 -3 10 -3 -133z"/>
<path d="M864 4575 c0 -132 2 -185 3 -117 2 68 2 176 0 240 -1 64 -3 9 -3 -123z"/>
</g>
<g id="layer104" fill="#bbada2" stroke="none">
<path d="M0 6000 l0 -6000 6000 0 6000 0 0 6000 0 6000 -6000 0 -6000 0 0 -6000z m8670 55 c186 -25 345 -88 485 -193 287 -213 435 -505 435 -857 0 -188 -28 -310 -111 -478 -98 -200 -272 -372 -482 -475 -176 -87 -397 -126 -574 -103 -327 44 -576 193 -765 456 -43 60 -98 171 -127 254 -43 124 -55 201 -54 351 0 125 3 160 27 250 57 221 183 421 351 559 169 138 326 207 540 236 120 17 152 17 275 0z m-5681 -195 c284 -61 474 -208 587 -455 27 -58 31 -71 62 -200 21 -89 23 -390 4 -480 -108 -491 -490 -722 -1121 -675 -144 10 -275 36 -330 65 -65 33 -61 -18 -61 834 0 750 1 775 20 805 43 70 165 111 375 126 154 11 361 2 464 -20z m2036 0 c252 -80 401 -250 444 -511 7 -42 11 -263 11 -625 -1 -619 0 -611 -65 -644 -36 -18 -186 -20 -227 -2 l-28 12 0 607 c0 410 -4 621 -11 648 -56 205 -225 310 -457 283 -135 -16 -255 -105 -304 -226 -23 -57 -23 -59 -28 -659 -5 -587 -5 -602 -26 -629 -11 -15 -36 -33 -55 -40 -72 -26 -229 -9 -229 25 0 9 -1 294 -1 634 0 542 2 626 17 684 55 221 231 394 454 447 104 24 107 25 275 21 130 -3 173 -7 230 -25z m1900 20 c241 -39 384 -147 354 -267 -11 -41 -58 -103 -80 -103 -7 0 -51 20 -98 44 -115 59 -197 78 -335 77 -198 0 -342 -60 -451 -188 -138 -161 -183 -487 -103 -743 75 -244 252 -383 503 -397 145 -8 218 7 352 73 124 61 132 61 173 4 72 -101 -1 -220 -175 -286 -86 -32 -162 -45 -295 -50 -124 -5 -160 -3 -249 16 -285 58 -496 239 -602 513 -35 92 -46 140 -60 262 -19 169 8 418 58 535 31 73 39 87 85 161 118 187 337 322 573 352 57 7 300 6 350 -3z m4263 -27 c40 -21 82 -74 82 -104 0 -21 -133 -198 -432 -576 -6 -8 15 -24 74 -54 57 -30 104 -64 148 -109 116 -115 156 -232 148 -423 -6 -119 -26 -191 -76 -272 -127 -207 -413 -297 -841 -265 -214 15 -336 49 -380 106 -21 27 -21 31 -21 821 0 857 -2 830 52 865 13 9 43 19 67 23 48 8 159 -1 181 -15 13 -8 16 -62 20 -322 l5 -313 156 -3 c141 -2 157 -1 172 16 9 10 73 99 141 198 283 409 289 416 361 442 39 15 96 9 143 -15z m-9503 -7 c42 -18 65 -61 65 -124 0 -39 -12 -98 -23 -114 -1 -1 -191 -5 -422 -8 l-420 -5 0 -260 0 -260 352 -5 353 -5 27 -28 c26 -25 28 -34 28 -101 0 -123 27 -115 -399 -118 l-361 -3 -3 -237 -2 -238 377 0 c423 0 430 -1 466 -70 22 -42 18 -127 -8 -166 l-15 -24 -499 0 c-535 0 -540 0 -588 52 -12 12 -26 36 -32 51 -8 19 -11 274 -11 789 0 833 -2 804 59 847 54 38 77 39 554 40 383 1 474 -2 502 -13z"/>
<path d="M7828 5578 c-2 -6 3 -32 11 -57 33 -95 161 -189 325 -240 97 -30 94 -31 85 37 -10 64 -47 191 -61 209 -5 6 -39 14 -76 18 -61 6 -204 28 -259 40 -12 3 -23 0 -25 -7z"/>
<path d="M9190 5580 c-23 -5 -28 -8 -15 -10 18 -3 -22 -7 -214 -24 -78 -7 -101 -26 -96 -80 2 -20 -1 -39 -6 -42 -5 -3 -6 3 -2 13 3 10 3 15 -1 11 -7 -6 -40 -121 -52 -178 -3 -14 -8 -34 -11 -45 -5 -18 -4 -18 12 -5 10 9 7 -1 -9 -25 -48 -70 -51 -67 226 -161 12 -4 20 0 24 12 15 46 67 180 72 189 4 6 7 15 8 20 1 6 28 77 60 159 38 100 54 151 46 154 -7 2 -10 8 -6 13 3 5 4 8 2 8 -2 -1 -19 -5 -38 -9z m-222 -57 c-16 -2 -40 -2 -55 0 -16 2 -3 4 27 4 30 0 43 -2 28 -4z"/>
<path d="M7860 5378 c1 -40 36 -102 81 -144 84 -76 167 -106 554 -200 399 -97 514 -140 579 -216 38 -44 56 -48 56 -13 0 70 -57 145 -136 181 -62 27 -273 94 -404 128 -532 136 -579 154 -688 255 -40 37 -42 37 -42 9z"/>
<path d="M7930 5143 c0 -19 14 -40 48 -73 74 -71 131 -90 607 -200 297 -68 404 -114 451 -195 6 -11 15 -15 22 -11 30 18 -1 100 -57 147 -58 50 -147 80 -467 159 -423 105 -480 123 -551 176 -41 31 -53 30 -53 -3z"/>
<path d="M8010 4970 c0 -5 20 -32 45 -60 25 -28 45 -56 46 -63 1 -7 5 -1 9 13 8 22 9 20 7 -12 -1 -20 2 -40 6 -44 4 -4 7 -14 7 -23 0 -9 11 -43 24 -76 14 -33 32 -81 42 -107 9 -26 20 -45 25 -42 5 3 8 -5 7 -18 0 -13 14 -61 32 -108 27 -69 35 -81 42 -65 6 14 7 9 4 -18 -3 -22 -1 -35 5 -32 5 4 9 -1 9 -9 0 -13 15 -16 90 -16 74 0 90 3 90 15 0 19 -47 219 -62 260 -16 48 -50 216 -44 222 9 10 243 -44 265 -61 12 -9 13 -7 8 7 -4 10 -3 16 2 12 11 -6 8 -45 -5 -65 -13 -21 -102 -378 -96 -385 3 -3 45 -5 94 -5 l88 0 23 53 c13 28 43 107 68 174 51 141 63 150 119 87 22 -26 34 -33 39 -25 14 22 -1 62 -35 96 -57 57 -186 98 -629 200 -128 30 -247 69 -280 91 -23 16 -45 18 -45 4z m90 -60 c0 -5 -2 -10 -4 -10 -3 0 -8 5 -11 10 -3 6 -1 10 4 10 6 0 11 -4 11 -10z m200 -510 c0 -5 -2 -10 -4 -10 -3 0 -8 5 -11 10 -3 6 -1 10 4 10 6 0 11 -4 11 -10z"/>
<path d="M2514 5621 c-29 -5 -57 -12 -63 -15 -8 -5 -11 -191 -11 -642 l0 -634 28 -12 c16 -6 98 -11 202 -11 149 0 185 3 243 21 212 65 345 202 403 412 25 92 25 347 0 444 -28 108 -47 152 -98 222 -69 97 -169 164 -294 199 -68 19 -328 29 -410 16z"/>
<path d="M10218 4950 c-17 -10 -18 -36 -18 -308 0 -163 4 -303 9 -311 7 -10 45 -17 132 -24 287 -22 465 39 530 185 35 77 34 201 -2 279 -38 82 -120 142 -229 169 -66 16 -401 24 -422 10z"/>
</g>
<g id="layer105" fill="#c4b7ae" stroke="none">
<path d="M0 6000 l0 -6000 6000 0 6000 0 0 6000 0 6000 -6000 0 -6000 0 0 -6000z m11980 0 l0 -5980 -5980 0 -5980 0 0 5980 0 5980 5980 0 5980 0 0 -5980z"/>
<path d="M10784 7935 c-10 -8 -36 -15 -56 -15 -20 0 -40 -4 -43 -10 -3 -5 -18 -10 -31 -10 -43 0 -80 -60 -53 -87 6 -6 14 -27 19 -48 7 -30 6 -35 -6 -31 -9 3 -12 1 -9 -4 3 -6 12 -10 20 -10 8 0 11 -7 8 -20 -7 -25 22 -28 31 -4 3 9 13 14 21 10 8 -3 18 0 22 7 14 21 73 47 108 47 19 0 37 5 40 10 9 14 121 12 148 -2 51 -29 87 -72 87 -103 0 -46 -80 -115 -134 -115 -13 0 -29 -7 -36 -15 -7 -8 -25 -15 -41 -15 -16 0 -29 -4 -29 -10 0 -5 -10 -10 -22 -10 -26 0 -98 -31 -98 -42 0 -4 -8 -8 -17 -8 -23 0 -73 -49 -73 -72 0 -10 -4 -18 -10 -18 -15 0 -13 -195 2 -223 7 -12 35 -46 63 -74 35 -38 57 -53 76 -53 15 0 32 -7 39 -15 18 -22 267 -22 296 0 10 8 37 15 60 15 60 0 104 25 104 59 0 15 -4 31 -9 36 -5 6 -11 28 -13 50 -3 38 -5 40 -39 43 -23 2 -40 -2 -49 -12 -7 -10 -28 -16 -51 -16 -21 0 -41 -4 -44 -10 -9 -15 -149 -12 -180 4 -31 16 -55 57 -55 92 0 30 56 83 87 84 12 0 25 5 28 10 3 6 19 10 35 10 16 0 32 5 35 10 3 6 16 10 29 10 12 0 31 7 42 15 10 8 29 15 41 15 12 0 25 5 28 10 3 6 14 10 24 10 21 0 91 72 91 93 0 8 7 20 15 27 11 9 15 35 15 105 0 70 -4 96 -15 105 -8 7 -15 18 -15 25 0 6 -9 20 -20 30 -11 10 -20 26 -20 37 0 10 -6 18 -14 18 -8 0 -28 11 -44 25 -17 14 -41 25 -55 25 -13 0 -30 7 -37 15 -18 22 -267 22 -296 0z"/>
<path d="M7830 5570 c0 -5 11 -33 23 -62 42 -94 131 -159 290 -212 112 -38 110 -38 102 37 -4 34 -11 64 -15 67 -4 3 -11 21 -14 41 -13 84 -12 83 -142 103 -66 10 -141 22 -167 27 -61 11 -77 11 -77 -1z"/>
<path d="M9190 5571 c0 -5 -37 -11 -82 -15 -46 -3 -103 -9 -128 -13 -44 -6 -44 -7 -15 -14 22 -6 15 -7 -28 -6 -56 2 -57 1 -67 -29 -6 -17 -8 -38 -5 -46 3 -8 -1 -21 -10 -28 -8 -7 -15 -21 -15 -32 0 -10 -7 -35 -16 -56 -19 -46 -26 -114 -10 -105 6 4 4 -2 -6 -13 -9 -10 -19 -35 -23 -55 l-7 -36 109 -37 c160 -55 149 -54 163 -9 7 21 18 52 25 68 7 17 18 45 25 63 7 17 16 32 20 32 5 0 7 8 5 18 -1 9 2 26 8 37 6 11 12 25 13 30 1 6 22 62 47 125 32 82 42 117 34 122 -16 10 -37 10 -37 -1z"/>
<path d="M7867 5368 c7 -45 36 -90 88 -136 77 -68 186 -109 435 -166 263 -61 504 -129 578 -164 32 -15 76 -46 100 -69 23 -24 45 -43 47 -43 12 0 4 64 -11 93 -21 39 -29 48 -79 79 -38 24 -239 98 -265 98 -7 0 -26 6 -43 14 -18 8 -45 17 -62 19 -16 3 -64 15 -105 26 -131 37 -183 50 -275 71 -167 39 -282 90 -357 159 l-56 51 5 -32z"/>
<path d="M7930 5155 c0 -2 5 -17 12 -32 34 -77 149 -134 372 -183 50 -12 107 -25 126 -30 19 -5 105 -25 190 -45 248 -58 328 -91 382 -155 19 -22 38 -40 41 -40 15 0 6 54 -14 89 -45 80 -121 111 -484 200 -138 34 -299 75 -359 92 -105 29 -218 77 -231 99 -6 10 -35 14 -35 5z"/>
<path d="M8020 4968 c1 -21 88 -110 93 -96 3 7 6 -4 6 -24 1 -37 88 -280 103 -286 4 -2 8 -11 8 -19 0 -32 43 -133 56 -133 8 0 14 -5 14 -11 0 -5 -5 -7 -12 -3 -8 5 -9 2 -5 -10 4 -10 7 -21 7 -24 0 -4 5 0 10 8 8 12 10 10 10 -10 1 -68 4 -70 102 -70 l90 0 -7 28 c-18 65 -36 150 -42 192 -3 25 -9 47 -13 50 -8 6 -40 138 -40 167 0 12 -4 25 -10 28 -14 8 -13 45 1 45 6 0 58 -11 115 -26 57 -14 109 -22 114 -19 6 3 10 2 10 -3 0 -5 9 -12 20 -15 13 -3 18 -1 13 5 -3 6 -1 8 5 4 12 -7 10 -42 -5 -71 -11 -21 -28 -88 -38 -145 -3 -19 -10 -46 -15 -60 -15 -38 -39 -163 -34 -172 3 -4 43 -8 88 -8 l83 0 23 53 c13 28 22 56 21 60 -1 4 4 18 11 30 7 12 13 24 13 27 3 20 30 89 41 108 8 12 12 22 9 22 -3 0 1 14 10 30 20 39 39 38 82 -5 19 -19 37 -35 39 -35 2 0 4 11 4 25 0 39 -65 96 -146 127 -76 30 -244 77 -369 103 -214 45 -368 90 -431 127 -25 15 -34 16 -34 6z m80 -58 c0 -5 -2 -10 -4 -10 -3 0 -8 5 -11 10 -3 6 -1 10 4 10 6 0 11 -4 11 -10z"/>
</g>
<g id="layer106" fill="#faf9f9" stroke="none">
<path d="M5840 7935 c-7 -8 -19 -15 -26 -15 -43 0 -144 -93 -144 -131 0 -16 -4 -31 -10 -34 -5 -3 -10 -44 -10 -90 0 -46 5 -87 10 -90 6 -3 10 -14 10 -24 0 -10 11 -28 25 -41 14 -13 25 -30 25 -37 0 -7 10 -17 23 -22 13 -5 29 -16 36 -25 7 -9 21 -16 31 -16 10 0 23 -7 30 -15 7 -8 22 -15 34 -15 12 0 26 -4 32 -10 5 -5 86 -11 179 -12 l170 -3 3 -59 c3 -53 0 -62 -25 -88 -45 -48 -83 -60 -160 -55 -88 6 -161 21 -175 35 -7 7 -22 12 -34 12 -13 0 -26 5 -29 10 -3 6 -19 10 -35 10 -32 0 -60 -31 -60 -67 0 -12 -4 -25 -10 -28 -5 -3 -10 -18 -10 -33 0 -30 44 -62 85 -62 13 0 27 -4 30 -10 3 -5 23 -10 43 -10 20 0 46 -7 56 -15 15 -12 52 -15 161 -15 109 0 146 3 161 15 10 8 31 15 47 15 15 0 27 5 27 10 0 6 8 10 19 10 25 0 101 86 101 115 0 13 5 27 10 30 6 4 10 80 10 195 0 115 -4 191 -10 195 -5 3 -10 42 -10 85 0 43 5 82 10 85 6 3 10 35 10 70 0 35 5 67 10 70 6 3 10 15 10 26 0 18 -6 20 -92 17 l-93 -3 -1 -27 c-1 -14 -9 -34 -18 -44 -16 -16 -19 -15 -54 17 -47 43 -75 59 -106 59 -13 0 -29 7 -36 15 -10 12 -37 15 -125 15 -88 0 -115 -3 -125 -15z m290 -182 c68 -35 86 -50 110 -99 27 -51 26 -91 -2 -115 -19 -15 -40 -18 -134 -19 -87 0 -114 3 -124 15 -7 8 -21 15 -31 15 -11 0 -19 4 -19 9 0 5 -10 11 -22 13 -15 2 -24 11 -26 26 -2 12 -8 22 -13 22 -5 0 -9 18 -9 41 0 31 6 47 29 70 16 16 36 29 45 29 8 0 18 5 21 10 3 6 32 10 63 10 43 0 71 -7 112 -27z"/>
<path d="M7834 7935 c-10 -8 -33 -15 -50 -15 -36 0 -83 -22 -109 -50 -10 -11 -26 -20 -35 -20 -21 0 -50 -31 -50 -53 0 -9 -9 -22 -20 -29 -12 -8 -20 -24 -20 -39 0 -15 -7 -32 -15 -39 -8 -7 -15 -25 -15 -41 0 -15 -4 -31 -10 -34 -6 -4 -10 -65 -10 -150 0 -85 4 -146 10 -150 6 -3 10 -19 10 -35 0 -16 4 -31 9 -35 11 -6 41 -63 41 -76 0 -13 125 -129 155 -145 15 -8 41 -14 59 -14 17 0 40 -7 50 -15 15 -11 49 -15 136 -15 87 0 121 4 136 15 10 8 31 15 47 15 15 0 27 5 27 10 0 6 7 10 15 10 25 0 95 49 104 73 5 13 16 29 25 36 9 7 16 26 16 41 0 15 7 33 15 40 13 11 15 36 13 144 l-3 131 -325 5 -325 5 -3 24 c-2 13 1 28 7 34 6 6 11 23 11 38 0 15 7 32 15 39 8 7 15 18 15 24 0 28 95 96 134 96 14 0 28 5 31 10 3 6 46 10 96 10 53 0 89 -4 89 -10 0 -5 11 -10 25 -10 14 0 44 -12 66 -26 50 -31 93 -30 97 4 2 12 8 22 13 22 5 0 9 9 9 19 0 11 5 23 10 26 32 20 -25 95 -71 95 -15 0 -31 5 -34 10 -3 6 -23 10 -44 10 -22 0 -44 6 -51 15 -18 22 -267 22 -296 0z m314 -607 c16 -16 15 -43 -3 -58 -8 -7 -15 -20 -15 -29 0 -22 -51 -71 -73 -71 -9 0 -17 -4 -17 -10 0 -6 -32 -10 -77 -9 -59 0 -85 5 -108 20 -16 10 -37 21 -45 25 -35 13 -45 22 -48 42 -2 11 -10 26 -18 32 -8 7 -14 20 -14 29 0 37 19 41 215 41 135 0 195 -4 203 -12z"/>
<path d="M10034 7935 c-10 -8 -29 -15 -42 -15 -27 0 -52 -21 -52 -44 0 -8 -4 -18 -10 -21 -5 -3 -16 -20 -25 -38 -12 -26 -15 -89 -17 -337 l-3 -305 -67 -3 -68 -3 0 -79 0 -79 68 -3 67 -3 3 -75 c4 -89 17 -110 73 -110 21 0 41 -4 44 -10 3 -5 26 -10 50 -10 l44 0 3 103 3 102 138 3 137 3 0 79 0 79 -137 3 -138 3 -3 254 c-2 221 0 258 15 292 10 24 24 39 34 39 10 0 21 5 24 10 3 6 24 10 45 10 21 0 42 -4 45 -10 3 -5 31 -10 61 -10 52 0 54 1 54 27 0 14 7 34 16 44 22 24 11 69 -16 69 -11 0 -20 5 -20 10 0 6 -20 10 -44 10 -26 0 -48 6 -56 15 -18 21 -198 21 -226 0z"/>
<path d="M10784 7935 c-10 -8 -36 -15 -56 -15 -20 0 -40 -4 -43 -10 -3 -5 -18 -10 -31 -10 -27 0 -63 -35 -63 -60 0 -8 6 -24 14 -34 8 -11 15 -30 15 -41 0 -12 8 -29 18 -38 19 -17 68 -23 74 -9 7 16 71 42 103 42 19 0 37 5 40 10 9 14 121 12 148 -2 51 -29 87 -72 87 -103 0 -46 -80 -115 -134 -115 -13 0 -29 -7 -36 -15 -7 -8 -25 -15 -41 -15 -16 0 -29 -4 -29 -10 0 -5 -10 -10 -22 -10 -26 0 -98 -31 -98 -42 0 -4 -8 -8 -17 -8 -23 0 -73 -49 -73 -72 0 -10 -4 -18 -10 -18 -15 0 -13 -195 2 -223 7 -12 35 -46 63 -74 35 -38 57 -53 76 -53 15 0 32 -7 39 -15 18 -22 267 -22 296 0 10 8 37 15 60 15 60 0 104 25 104 59 0 15 -4 31 -9 36 -5 6 -11 28 -13 50 -3 38 -5 40 -39 43 -23 2 -40 -2 -49 -12 -7 -10 -28 -16 -51 -16 -21 0 -41 -4 -44 -10 -9 -15 -149 -12 -180 4 -31 16 -55 57 -55 92 0 30 56 83 87 84 12 0 25 5 28 10 3 6 19 10 35 10 16 0 32 5 35 10 3 6 16 10 29 10 12 0 31 7 42 15 10 8 29 15 41 15 12 0 25 5 28 10 3 6 14 10 24 10 21 0 91 72 91 93 0 8 7 20 15 27 11 9 15 35 15 105 0 70 -4 96 -15 105 -8 7 -15 18 -15 25 0 6 -9 20 -20 30 -11 10 -20 26 -20 37 0 10 -6 18 -14 18 -8 0 -28 11 -44 25 -17 14 -41 25 -55 25 -13 0 -30 7 -37 15 -18 22 -267 22 -296 0z"/>
<path d="M4667 7913 c-4 -3 -7 -272 -7 -598 0 -446 3 -594 12 -603 7 -7 29 -12 50 -12 21 0 38 -4 38 -10 0 -6 75 -10 204 -10 126 0 207 4 211 10 3 6 23 10 43 10 20 0 46 7 56 15 11 8 28 15 38 15 10 0 28 6 41 12 32 19 127 110 127 124 0 6 7 17 15 24 8 7 15 21 15 31 0 11 5 19 10 19 6 0 10 45 10 114 0 66 -4 117 -10 121 -5 3 -10 17 -10 29 0 13 -7 29 -15 36 -8 7 -15 20 -15 29 0 22 -120 141 -142 141 -9 0 -20 5 -23 10 -3 6 -17 10 -30 10 -13 0 -27 5 -30 10 -3 6 -23 10 -43 10 -20 0 -46 7 -56 15 -15 11 -51 15 -148 15 -95 0 -128 3 -128 13 -1 6 0 94 0 194 0 100 -2 193 -6 207 -6 26 -7 26 -103 26 -54 0 -101 -3 -104 -7z m418 -613 c3 -5 17 -10 31 -10 14 0 37 -8 52 -17 39 -24 102 -85 102 -99 0 -6 7 -17 15 -24 10 -8 15 -31 15 -70 0 -39 -5 -62 -15 -70 -8 -7 -15 -21 -15 -31 0 -11 -4 -19 -10 -19 -5 0 -10 -8 -10 -18 0 -10 -15 -26 -35 -36 -19 -11 -35 -23 -35 -28 0 -4 -13 -8 -29 -8 -16 0 -34 -7 -41 -15 -18 -21 -215 -22 -227 -1 -4 8 -7 114 -5 235 l3 221 99 0 c55 0 102 -4 105 -10z"/>
<path d="M6825 7908 c-3 -7 -4 -211 -3 -453 l3 -440 78 -3 c60 -2 77 0 77 11 0 8 9 22 20 32 20 18 21 18 53 -13 18 -18 40 -32 49 -32 8 0 21 -7 28 -15 20 -24 180 -21 208 4 23 19 29 60 13 76 -5 6 -11 28 -13 50 -3 39 -4 40 -42 43 -21 2 -43 -1 -49 -7 -14 -14 -97 -14 -97 -1 0 6 -8 10 -18 10 -21 0 -73 54 -90 93 -8 20 -12 122 -12 342 l0 315 -100 0 c-71 0 -102 -4 -105 -12z"/>
<path d="M8675 7908 c-3 -7 -4 -211 -3 -453 l3 -440 77 -3 c74 -3 77 -2 90 24 22 46 43 52 75 24 38 -34 68 -50 95 -50 13 0 32 -7 42 -15 28 -22 228 -21 246 0 7 8 22 15 35 15 25 0 78 24 93 43 23 29 62 109 62 128 0 11 7 30 15 43 13 19 15 72 13 357 l-3 334 -99 3 c-73 2 -102 -1 -108 -10 -4 -7 -8 -145 -8 -305 0 -189 -4 -293 -10 -293 -5 0 -10 -13 -10 -29 0 -17 -4 -33 -10 -36 -5 -3 -10 -13 -10 -21 0 -55 -157 -98 -223 -62 -32 19 -127 110 -127 124 0 6 -7 17 -15 24 -13 11 -15 58 -15 311 l0 299 -100 0 c-71 0 -102 -4 -105 -12z"/>
<path d="M7834 5568 c2 -7 10 -31 17 -53 17 -53 100 -134 172 -168 67 -31 216 -81 223 -74 3 3 2 33 -2 67 -4 40 -10 57 -15 48 -6 -9 -9 -3 -10 17 -1 54 -16 106 -33 117 -6 4 -25 8 -43 8 -17 0 -44 5 -60 11 -15 6 -54 12 -85 15 -32 2 -77 8 -100 14 -57 13 -71 12 -64 -2z"/>
<path d="M9195 5571 c-3 -6 -33 -11 -66 -11 -69 0 -151 -18 -143 -31 3 -5 -20 -9 -51 -9 -51 0 -56 -2 -66 -27 -5 -14 -7 -33 -4 -41 3 -7 -2 -23 -10 -35 -8 -12 -15 -31 -15 -42 0 -11 -8 -36 -18 -55 -12 -23 -16 -45 -12 -65 4 -18 1 -36 -6 -45 -8 -9 -15 -31 -16 -50 -3 -34 -2 -35 57 -53 33 -11 88 -31 123 -44 34 -14 64 -24 66 -22 5 4 41 106 57 157 6 18 16 35 24 38 8 3 12 15 9 29 -2 12 3 28 11 35 8 7 13 16 10 20 -4 6 10 45 58 160 23 55 27 91 10 97 -6 2 -14 -1 -18 -6z"/>
<path d="M7864 5390 c3 -8 8 -27 10 -43 10 -58 73 -120 173 -171 75 -37 175 -68 358 -111 471 -110 592 -152 666 -232 22 -24 43 -42 46 -39 13 12 -11 86 -38 120 -37 43 -96 72 -249 121 -63 21 -120 41 -125 46 -6 4 -24 7 -41 7 -16 -1 -45 6 -64 14 -48 21 -121 41 -127 34 -3 -3 -15 0 -27 7 -11 6 -32 13 -46 14 -14 1 -34 7 -45 12 -11 5 -36 12 -55 14 -90 11 -268 76 -335 121 -22 15 -55 44 -73 64 -18 20 -31 30 -28 22z"/>
<path d="M7945 5133 c24 -97 144 -145 605 -243 30 -7 80 -19 110 -27 30 -8 73 -20 95 -25 141 -37 203 -66 256 -119 23 -23 43 -38 45 -36 12 11 -18 85 -43 109 -63 59 -156 91 -555 189 -21 5 -55 13 -75 18 -247 60 -375 105 -409 142 -25 27 -37 24 -29 -8z"/>
<path d="M8020 4964 c0 -15 89 -101 94 -91 2 7 5 -6 5 -28 1 -22 8 -53 16 -69 8 -15 15 -33 15 -38 0 -5 11 -34 25 -64 14 -30 25 -60 25 -67 0 -7 6 -21 13 -32 7 -11 24 -53 37 -92 14 -40 30 -73 37 -73 7 0 13 -5 13 -11 0 -5 -4 -7 -10 -4 -6 3 -7 -1 -4 -9 3 -9 10 -13 15 -10 5 3 9 -5 9 -18 1 -65 5 -68 99 -68 l87 0 -19 88 c-10 48 -21 107 -24 132 -3 25 -9 47 -13 50 -9 6 -30 91 -37 148 -3 23 -9 42 -14 42 -5 0 -9 11 -9 25 0 14 6 25 13 25 20 0 140 -27 175 -40 18 -7 39 -10 47 -6 8 3 17 1 20 -5 4 -5 14 -8 23 -7 21 4 23 -37 4 -69 -7 -12 -14 -38 -15 -57 -1 -20 -5 -36 -8 -36 -3 0 -6 -6 -7 -12 -3 -45 -14 -93 -22 -103 -9 -11 -13 -33 -27 -132 l-6 -43 85 0 c94 0 91 -2 113 78 3 12 10 22 15 22 4 0 6 8 3 19 -2 10 2 25 11 33 8 9 13 18 10 21 -3 2 7 31 22 63 15 33 28 64 28 69 8 62 47 72 94 25 34 -34 42 -37 42 -15 0 34 -68 90 -147 122 -86 36 -184 65 -223 67 -14 0 -27 4 -30 8 -4 5 -62 19 -205 49 -22 4 -83 19 -135 33 -52 13 -98 22 -102 20 -4 -3 -8 0 -8 5 0 6 -5 11 -11 11 -6 0 -33 11 -61 25 -54 27 -58 28 -58 19z m80 -54 c0 -5 -2 -10 -4 -10 -3 0 -8 5 -11 10 -3 6 -1 10 4 10 6 0 11 -4 11 -10z"/>
</g>


</svg>