<?xml version="1.0" encoding="UTF-8"?>
<!DOCTYPE svg PUBLIC "-//W3C//DTD SVG 1.1//EN" "http://www.w3.org/Graphics/SVG/1.1/DTD/svg11.dtd">
<!-- Creator: CorelDRAW 2020 (64-Bit) -->
<svg xmlns="http://www.w3.org/2000/svg" xml:space="preserve" width="9.9863mm" height="9.1387mm" version="1.1" style="shape-rendering:geometricPrecision; text-rendering:geometricPrecision; image-rendering:optimizeQuality; fill-rule:evenodd; clip-rule:evenodd"
viewBox="0 0 64.29 58.84"
 xmlns:xlink="http://www.w3.org/1999/xlink"
 xmlns:xodm="http://www.corel.com/coreldraw/odm/2003">
 <defs>
  <style type="text/css">
   <![CDATA[
    .fil0 {fill:#1A1A1A}
   ]]>
  </style>
 </defs>
 <g id="Capa_x0020_1">
  <metadata id="CorelCorpID_0Corel-Layer"/>
  <path class="fil0" d="M-0 58.75l16.93 -2.34 3.01 -12.75c-12.55,2.64 -17.79,6.71 -19.94,15.09z"/>
  <polygon class="fil0" points="47.88,56.43 64.29,58.84 54.53,33.59 43.17,38.1 "/>
  <path class="fil0" d="M2.15 50.36c9.29,-14.34 59.97,-10.35 56.63,-28.77 -8.07,14.84 -58.73,11.25 -56.63,28.77z"/>
  <path class="fil0" d="M5.3 40.3c7.79,-9.99 55.51,-8.55 50.47,-23.9 -6.65,13.98 -53.13,10.45 -50.47,23.9z"/>
  <path class="fil0" d="M53.17 12.61c3.7,11.07 -33.91,12.18 -44.16,19.15 -0.66,-1.37 1.17,-3.78 3.45,-4.96l9.97 -26.58 8.47 -0.08 -5.55 23.03 12.89 -2.74 -4.74 -20.31 8.81 -0.11 5.91 16.42c1.46,0.21 3.14,-1.26 4.96,-3.82z"/>
 </g>
</svg>
